<svg xmlns="http://www.w3.org/2000/svg" width="810" viewBox="0 0 810 810" height="810" version="1.0"><defs><clipPath id="a"><path d="M 565 453 L 789.867188 453 L 789.867188 566 L 565 566 Z M 565 453"/></clipPath><clipPath id="b"><path d="M 20.367188 389 L 710 389 L 710 598 L 20.367188 598 Z M 20.367188 389"/></clipPath><clipPath id="c"><path d="M 20.367188 132 L 710 132 L 710 406 L 20.367188 406 Z M 20.367188 132"/></clipPath></defs><path fill="#455A64" d="M 757.804688 597.492188 C 757.804688 641.773438 721.929688 677.648438 677.648438 677.648438 C 633.371094 677.648438 597.492188 641.773438 597.492188 597.492188 C 597.492188 553.214844 633.371094 517.335938 677.648438 517.335938 C 721.929688 517.335938 757.804688 553.214844 757.804688 597.492188"/><path fill="#CFD8DC" d="M 709.710938 597.492188 C 709.710938 615.207031 695.363281 629.554688 677.648438 629.554688 C 659.933594 629.554688 645.585938 615.207031 645.585938 597.492188 C 645.585938 579.777344 659.933594 565.429688 677.648438 565.429688 C 695.363281 565.429688 709.710938 579.777344 709.710938 597.492188"/><g clip-path="url(#a)"><path fill="#388E3C" d="M 789.867188 565.429688 L 565.429688 565.429688 L 565.429688 453.210938 L 709.710938 453.210938 C 789.867188 485.273438 789.867188 565.429688 789.867188 565.429688 Z M 789.867188 565.429688"/></g><path fill="#455A64" d="M 533.367188 357.023438 L 533.320312 164.648438 L 613.523438 164.648438 C 613.523438 164.648438 709.710938 228.773438 709.710938 357.023438 Z M 533.367188 357.023438"/><g clip-path="url(#b)"><path fill="#43A047" d="M 549.398438 597.492188 L 20.367188 597.492188 L 20.367188 389.085938 L 340.992188 389.085938 L 340.992188 533.367188 L 485.273438 533.367188 L 485.273438 405.117188 L 709.710938 405.117188 L 709.710938 453.210938 Z M 549.398438 597.492188"/></g><g clip-path="url(#c)"><path fill="#FFC107" d="M 533.367188 357.023438 L 533.367188 164.648438 L 645.585938 164.648438 L 645.585938 132.585938 L 196.710938 132.585938 C 84.957031 132.585938 20.367188 197.175781 20.367188 276.867188 L 20.367188 389.085938 L 164.648438 389.085938 L 164.648438 276.867188 C 164.648438 232.605469 200.542969 196.710938 244.804688 196.710938 L 485.273438 196.710938 L 485.273438 405.117188 L 709.710938 405.117188 L 709.710938 357.023438 Z M 533.367188 357.023438"/></g><path fill="#66BB6A" d="M 164.648438 485.273438 C 102.671875 485.273438 52.429688 535.515625 52.429688 597.492188 L 276.867188 597.492188 C 276.867188 535.515625 226.625 485.273438 164.648438 485.273438 Z M 164.648438 485.273438"/><path fill="#455A64" d="M 244.804688 597.492188 C 244.804688 641.773438 208.929688 677.648438 164.648438 677.648438 C 120.371094 677.648438 84.492188 641.773438 84.492188 597.492188 C 84.492188 553.214844 120.371094 517.335938 164.648438 517.335938 C 208.929688 517.335938 244.804688 553.214844 244.804688 597.492188"/><path fill="#CFD8DC" d="M 196.710938 597.492188 C 196.710938 615.207031 182.363281 629.554688 164.648438 629.554688 C 146.933594 629.554688 132.585938 615.207031 132.585938 597.492188 C 132.585938 579.777344 146.933594 565.429688 164.648438 565.429688 C 182.363281 565.429688 196.710938 579.777344 196.710938 597.492188"/></svg>