<svg xmlns="http://www.w3.org/2000/svg" width="810" viewBox="0 0 810 810" height="810" version="1.0"><path d="M 188.902344 524.4375 C 187.585938 525.625 186.214844 526.816406 184.664062 527.875 C 187.972656 531.441406 190.894531 535.347656 193.476562 539.585938 C 206.53125 529.402344 215.058594 514.429688 213.792969 496.511719 C 209.035156 494.1875 204.332031 491.808594 199.550781 489.351562 C 201.957031 501.476562 197.71875 515.4375 188.902344 524.4375 Z M 169.855469 533.820312 C 160.65625 535.683594 150.601562 534.832031 141.53125 532.167969 C 136.570312 537.546875 134.734375 544.5 133.546875 551.585938 C 148.871094 556.082031 165.953125 554.144531 180.503906 547.394531 C 177.402344 542.5625 173.964844 538.0625 169.855469 533.820312 Z M 115.273438 438.984375 C 96.277344 448.992188 88.085938 466.105469 87.878906 484.257812 C 88.808594 483.742188 89.996094 483.328125 91.652344 483.328125 L 107.132812 483.328125 C 107.261719 467.503906 114.550781 453.023438 129.4375 448.113281 C 124.679688 445.136719 119.925781 442.085938 115.273438 438.984375 Z M 112.429688 539.71875 C 114.679688 541.914062 117.132812 543.75 119.71875 545.351562 C 121.089844 538.269531 123.621094 531.648438 127.703125 525.832031 C 126.722656 525.109375 125.792969 524.4375 124.886719 523.636719 C 115.015625 515.359375 109.25 503.261719 107.597656 491.003906 L 91.652344 491.003906 C 90.152344 491.003906 88.9375 490.617188 88.007812 490.152344 C 89.480469 508.40625 98.472656 526.945312 112.429688 539.71875 Z M 220.332031 383.113281 C 225.757812 379.75 231.339844 376.570312 237.078125 374.113281 C 229.015625 372.535156 220.949219 370.546875 212.9375 368.167969 C 212.34375 371.605469 211.75 375.042969 211.027344 378.40625 C 213.792969 379.671875 216.558594 380.941406 219.347656 382.257812 C 219.8125 382.515625 220.019531 382.800781 220.332031 383.113281 Z M 261.113281 427.660156 L 261.113281 427.996094 C 274.605469 432.238281 288.429688 435.753906 301.378906 441.570312 C 301.457031 441.15625 301.378906 440.847656 301.585938 440.433594 C 308.71875 423.03125 319.78125 405.296875 324.535156 386.550781 C 306.753906 383.578125 289.230469 381.714844 271.8125 379.492188 C 270.832031 381.871094 268.761719 383.65625 265.402344 383.527344 C 254.34375 382.984375 244.675781 386.371094 235.5 391.074219 C 249.070312 398.210938 257.855469 413.105469 261.113281 427.660156 Z M 618.644531 290.859375 C 621.695312 291.246094 623.195312 293.109375 623.738281 295.28125 C 629.164062 294.558594 634.566406 293.574219 639.941406 292.359375 C 638.160156 283.515625 635.703125 275.089844 632.601562 267.152344 C 624.460938 267.28125 615.984375 268.882812 608.050781 271.777344 C 608.464844 280.59375 609.109375 289.59375 618.644531 290.859375 Z M 616.835938 532.246094 C 619.292969 528.546875 622.210938 525.160156 625.777344 522.703125 C 616.269531 501.476562 617.765625 475.183594 635.1875 454.394531 C 635.496094 453.414062 635.960938 452.558594 636.683594 451.757812 C 636.582031 451.371094 636.425781 450.957031 636.21875 450.566406 C 617.585938 463.546875 610.96875 486.25 610.96875 508.871094 C 610.96875 518.207031 613.0625 525.882812 616.835938 532.246094 Z M 662.890625 556.808594 C 650.847656 552.902344 640.925781 545.351562 633.585938 535.8125 C 630.949219 537.804688 628.957031 540.648438 627.304688 543.957031 C 636.839844 551.507812 649.738281 555.460938 662.890625 556.808594 Z M 719.542969 458.636719 C 721.714844 455.867188 724.351562 453.671875 727.398438 452.015625 C 720.730469 446.714844 713.054688 443.226562 704.785156 442.21875 C 704.65625 442.21875 704.65625 442.164062 704.449219 442.164062 C 703.726562 445.679688 703.46875 449.429688 703.597656 453.28125 C 709.542969 453.957031 714.890625 455.867188 719.542969 458.636719 Z M 739.3125 528.988281 C 741.097656 526.761719 742.878906 524.488281 744.40625 521.980469 C 755.207031 504.113281 750.816406 480.6875 738.589844 463.882812 C 738.332031 463.882812 738.203125 463.933594 737.917969 464.011719 C 735.023438 464.066406 732.828125 465.925781 731.121094 468.226562 C 739.648438 478.027344 744.664062 491.472656 745.464844 505.097656 C 745.929688 513.835938 743.550781 521.929688 739.3125 528.988281 Z M 12.257812 386.035156 C 19.46875 377.757812 26.082031 368.941406 32.441406 359.945312 C 31.589844 359.636719 30.527344 359.300781 29.675781 358.964844 C 20.605469 355.78125 24.507812 341.355469 33.628906 344.535156 C 36.136719 345.390625 38.667969 346.398438 41.253906 347.378906 C 45.933594 340.167969 50.558594 332.875 55.003906 325.453125 C 44.949219 328.039062 34.691406 329.902344 23.988281 329.851562 C 14.324219 329.773438 14.324219 314.800781 23.988281 314.878906 C 48.980469 315.085938 71.335938 303.941406 95.21875 298.667969 C 79.683594 289.800781 63.53125 279.585938 55.855469 263.503906 C 53.867188 259.421875 55.210938 253.523438 60.300781 252.515625 C 68.441406 250.863281 76.636719 249.957031 84.699219 249.621094 C 76.246094 247.035156 67.769531 244.371094 59.757812 240.546875 C 51.101562 236.433594 58.726562 223.53125 67.382812 227.695312 C 79.738281 233.667969 93.5625 236.046875 106.410156 241.011719 C 107.210938 241.347656 107.804688 241.8125 108.398438 242.277344 C 123.542969 234.183594 141.609375 236.511719 160.605469 236.898438 C 186.527344 237.496094 208.960938 232.660156 221.984375 259.730469 C 222.785156 261.386719 222.863281 263.039062 222.527344 264.515625 C 223.976562 265.445312 225.371094 266.425781 226.636719 267.488281 C 258.582031 295.875 295.769531 288.609375 334.074219 299.523438 C 334.460938 297.996094 335.003906 296.546875 335.726562 295.023438 C 350.484375 263.660156 363.042969 236.382812 399.589844 229.167969 C 436.15625 221.878906 478.050781 223.792969 511.777344 239.953125 C 536.796875 251.871094 555.636719 272.246094 541.941406 298.332031 C 546.332031 298.539062 550.675781 298.847656 554.914062 299.132812 C 555.535156 299.054688 556.101562 299.054688 556.722656 298.980469 C 555.714844 277.542969 543.542969 243.855469 574.96875 240.082031 C 588.332031 238.503906 600.503906 244.835938 605.59375 256.835938 C 612.082031 254.714844 618.828125 253.113281 625.574219 252.515625 C 617.378906 238.554688 606.1875 226.453125 591.121094 216.320312 C 589.054688 215 587.21875 212.621094 587.398438 209.90625 C 588.667969 196.851562 593.5 187.207031 603.757812 182.964844 C 605.59375 180.71875 608.515625 179.449219 611.566406 180.976562 C 612.417969 180.921875 613.21875 180.769531 613.992188 180.71875 C 619.109375 180.378906 621.410156 184.234375 621.230469 188.113281 C 649.816406 210.371094 677.648438 239.410156 699.824219 267.152344 C 714.039062 284.964844 738.332031 320.179688 727.011719 344.121094 C 725.824219 346.578125 723.03125 347.714844 720.472656 347.84375 C 705.378906 348.777344 695.507812 366.382812 686.589844 377.5 C 712.382812 376.699219 734.558594 385.566406 756.0625 402.660156 C 757.25 403.640625 757.972656 404.882812 758.179688 406.097656 C 797.335938 421.378906 808.265625 460.417969 803.097656 500.289062 C 797.128906 545.742188 772.007812 582.558594 729.726562 600.683594 C 685.789062 619.558594 631.257812 615.035156 594.6875 583.207031 C 584.894531 574.59375 576.570312 561.953125 570.421875 547.601562 C 567.214844 548.714844 563.390625 547.863281 561.605469 544.34375 C 559.023438 545.871094 555.636719 545.949219 553.257812 544.214844 C 552.742188 544.421875 552.148438 544.679688 551.476562 544.679688 L 469.78125 544.679688 C 469.78125 544.679688 469.703125 544.757812 469.625 544.757812 C 466.785156 546.671875 464.019531 546.207031 462.027344 544.679688 L 428.894531 544.679688 C 427.757812 544.679688 426.90625 544.292969 426.105469 543.75 C 389.972656 542.300781 354.050781 539.121094 317.917969 538.269531 C 316.007812 539.199219 313.835938 539.535156 311.382812 538.398438 C 311.304688 538.269531 311.121094 538.191406 311.046875 538.140625 C 309.855469 538.140625 308.667969 538.140625 307.476562 538.0625 C 303.707031 538.0625 301.457031 535.761719 300.65625 532.917969 C 291.195312 527.953125 281.996094 522.316406 272.949219 516.5 C 259.253906 599.960938 160.863281 630.261719 88.421875 595.796875 C 13.574219 560.246094 1.867188 428.796875 77.644531 387.429688 C 77.824219 387.351562 78.03125 387.351562 78.238281 387.222656 C 75.265625 384.457031 71.957031 381.792969 67.976562 380.679688 C 58.726562 377.964844 62.601562 363.511719 71.878906 366.253906 C 77.230469 367.753906 81.933594 370.753906 86.09375 374.320312 C 88.679688 371.863281 91.804688 369.820312 96.019531 368.761719 C 98.601562 368.167969 100.644531 368.8125 102.300781 370.132812 C 116.332031 364.445312 130.882812 362.195312 145.460938 362.402344 C 142.875 359.636719 140.210938 356.972656 137.449219 354.464844 C 130.367188 347.898438 140.9375 337.375 148.042969 343.863281 C 154.761719 350.09375 160.941406 357.230469 167.066406 364.597656 C 177.144531 366.382812 187.199219 369.148438 197.042969 372.71875 C 197.640625 369.5625 198.183594 366.382812 198.699219 363.203125 C 190.84375 360.074219 183.089844 356.507812 175.363281 352.085938 C 152.851562 339.105469 133.339844 321.628906 111.242188 308.054688 C 110.515625 309.785156 109.070312 311.183594 106.410156 311.648438 C 95.839844 313.355469 85.757812 316.40625 75.652344 319.457031 C 75.445312 319.972656 75.367188 320.4375 75.109375 321.035156 C 59.707031 347.507812 42.960938 373.390625 22.851562 396.609375 C 16.546875 403.898438 6.054688 393.296875 12.257812 386.035156"/><path fill="#F00" d="M 96.226562 264.125 C 89.117188 264.046875 82.0625 264.332031 75.007812 265.261719 C 86.429688 278.683594 105.296875 287.109375 119.847656 295.539062 C 141.917969 308.285156 161.300781 325.53125 182.933594 339.183594 C 221.699219 363.644531 267.238281 364.160156 311.355469 369.691406 C 299.957031 363.925781 288.613281 358.265625 278.714844 349.914062 C 277.578125 350.300781 276.335938 350.378906 274.886719 349.992188 C 253.050781 344.070312 222.941406 347.84375 207.667969 327.832031 C 197.792969 314.878906 188.515625 295.929688 191.050781 278.835938 C 162.464844 273.769531 133.492188 266.039062 104.445312 264.410156 C 101.832031 265.882812 98.628906 265.496094 96.226562 264.125"/><path fill="#F00" d="M 359.582031 279.457031 C 352.292969 293.160156 344.175781 311.570312 358.210938 324.136719 C 366.25 331.347656 376.199219 336.960938 385.320312 342.699219 C 385.398438 342.699219 385.398438 342.777344 385.476562 342.855469 C 393.074219 340.089844 400.648438 337.191406 408.167969 333.960938 C 435.304688 322.066406 461.433594 309.191406 490.714844 303.605469 C 492.707031 303.21875 494.308594 303.683594 495.753906 304.433594 C 504.957031 299.753906 515.398438 298.230469 526.121094 297.996094 C 526.121094 296.78125 526.355469 295.539062 527.105469 294.246094 C 545.972656 264.125 495.546875 247.398438 477.070312 243.183594 C 455.515625 238.191406 431.480469 241.65625 409.691406 242.871094 C 384.105469 244.320312 370.925781 258.28125 359.582031 279.457031"/><path fill="#F00" d="M 340.714844 331.039062 C 322.570312 331.117188 307.839844 332.953125 293.753906 342.855469 C 305.695312 351.515625 319.730469 356.816406 332.597656 364.003906 C 343.867188 358.1875 355.679688 353.585938 367.539062 349.214844 C 359.117188 343.992188 349.992188 337.789062 343.167969 330.601562 C 342.421875 330.804688 341.644531 331.039062 340.714844 331.039062"/><path fill="#F00" d="M 495.007812 529.324219 C 513.175781 529.324219 532.171875 529.324219 548.039062 529.324219 C 545.816406 519.574219 543.902344 509.542969 543.828125 499.796875 C 528.421875 510.914062 511.625 519.886719 495.007812 529.324219"/><path fill="#F00" d="M 403.414062 502.332031 C 378.421875 504.398438 360.796875 512.90625 341.800781 524.179688 C 375.449219 525.808594 409.097656 528.546875 442.722656 529.324219 C 449.003906 529.324219 457.066406 529.324219 466.113281 529.324219 C 493.171875 511.84375 523.355469 499.28125 547.417969 477.5625 C 549.097656 473.347656 551.425781 469.210938 554.472656 465.304688 C 570.496094 445.136719 592.179688 430.789062 614.019531 416.699219 C 626.8125 389.859375 595.335938 374.371094 570.109375 364.109375 C 559.824219 379.648438 550.027344 395.523438 537.90625 409.5625 C 539.769531 414.242188 535.839844 421.378906 529.042969 420.292969 C 513.71875 417.679688 498.367188 415.144531 483.039062 412.636719 C 473.554688 411.007812 477.613281 396.609375 487.019531 398.210938 C 498.984375 400.203125 510.953125 402.191406 522.816406 404.183594 C 535.839844 390.480469 545.660156 374.21875 555.949219 358.496094 C 555.558594 358.34375 555.09375 358.1875 554.707031 357.953125 C 533.929688 349.449219 513.328125 341.640625 494 330.445312 C 493.171875 331.117188 492.164062 331.738281 490.871094 332.125 C 457.738281 340.320312 437.449219 356.660156 419.902344 384.121094 C 449.855469 404.417969 485.574219 431.71875 454.222656 466.597656 C 442.050781 480.171875 422.953125 500.726562 403.414062 502.332031"/><path fill="#F00" d="M 671.34375 393.296875 C 666.691406 397.667969 661.859375 401.753906 656.792969 405.734375 C 661.703125 423.601562 673.410156 475.054688 691.191406 473.347656 C 688.21875 456.566406 684.757812 435.703125 697.1875 422.824219 C 707.449219 412.25 720.472656 408.707031 733.808594 405.113281 C 716.027344 394.152344 696.878906 389.550781 674.804688 393.453125 C 673.566406 393.609375 672.429688 393.53125 671.34375 393.296875"/><path fill="#F00" d="M 542.972656 313.019531 C 528.734375 311.957031 513.847656 311.726562 502.269531 317.851562 C 536.539062 337.789062 575.460938 348.90625 610.039062 368.683594 C 626.734375 378.277344 634.488281 389.859375 633.585938 403.820312 C 643.613281 396.996094 653.328125 389.9375 662.167969 381.949219 C 673.71875 371.449219 680.464844 353.429688 693.722656 345.15625 C 699.925781 341.253906 706.386719 337.476562 712.902344 334.195312 C 716.804688 332.203125 719.257812 333.183594 720.164062 333.804688 C 719.027344 332.589844 715.640625 328.066406 709.824219 314.648438 C 706.078125 305.984375 701.789062 297.996094 697.03125 290.421875 C 681.628906 286.414062 667.828125 278.371094 651.960938 276.535156 C 653.5625 283.050781 654.800781 289.566406 655.785156 296.082031 C 656.328125 300.066406 654.800781 304.148438 650.511719 305.289062 C 623.609375 312.578125 595.695312 312.5 567.964844 313.484375 C 566.984375 314.105469 565.742188 314.492188 564.21875 314.492188 C 561.53125 314.414062 558.6875 314.257812 555.6875 314.027344 C 553.027344 314.179688 550.339844 314.257812 547.652344 314.492188 C 545.582031 314.648438 544.136719 313.949219 542.972656 313.019531"/><path fill="#808080" d="M 324.921875 424.894531 C 328.695312 422.746094 333.582031 421.300781 339.808594 420.757812 C 346.246094 420.136719 353.6875 420.214844 359.660156 422.902344 C 367.539062 426.496094 374.519531 415.378906 380.953125 410.335938 C 392.765625 400.898438 409.769531 402.425781 425.25 405.578125 C 417.292969 399.8125 409.691406 395.210938 405.945312 392.703125 C 402.558594 390.402344 401.035156 386.109375 403.257812 382.414062 C 417.445312 358.496094 433.675781 341.328125 455.386719 329.746094 C 441.972656 334.890625 428.871094 340.941406 415.6875 346.835938 C 391.316406 357.800781 365.164062 364.238281 341.335938 376.363281 C 339.65625 393.375 332.367188 409.25 324.921875 424.894531"/><path d="M 119.847656 295.539062 C 141.945312 308.261719 161.328125 325.53125 182.90625 339.15625 C 221.726562 363.667969 267.265625 364.1875 311.382812 369.691406 C 299.933594 363.925781 288.613281 358.289062 278.6875 349.886719 C 277.578125 350.277344 276.308594 350.351562 274.863281 349.964844 C 253.023438 344.070312 222.914062 347.84375 207.71875 327.859375 C 197.792969 314.878906 188.515625 295.953125 191.023438 278.8125 C 162.4375 273.769531 133.46875 266.039062 104.417969 264.4375 C 101.832031 265.882812 98.601562 265.496094 96.226562 264.101562 C 89.144531 264.046875 82.0625 264.382812 74.980469 265.238281 C 86.429688 278.683594 105.296875 287.136719 119.847656 295.539062 Z M 197.898438 414.164062 C 197.847656 414.242188 197.71875 414.292969 197.640625 414.371094 C 195.261719 415.558594 192.9375 415.558594 191.023438 414.679688 C 188.050781 413.492188 186.0625 410.3125 186.605469 406.820312 C 176.550781 398.546875 167.945312 388.410156 159.46875 378.355469 C 146.570312 376.570312 133.546875 376.90625 120.90625 379.878906 C 142.460938 391.800781 163.964844 403.847656 186.214844 414.5 C 187.585938 415.09375 188.902344 415.742188 190.300781 416.414062 C 209.941406 425.824219 229.222656 435.882812 243.773438 452.480469 C 247.132812 456.257812 245.761719 460.960938 242.839844 463.546875 C 241.832031 467.839844 240 471.742188 237.800781 475.519531 C 247.726562 481.878906 257.597656 488.421875 267.367188 494.988281 C 267.523438 494.523438 267.574219 494.054688 267.832031 493.589844 C 268.761719 492.015625 269.769531 490.359375 270.753906 488.757812 C 263.878906 471.484375 257.597656 453.335938 246.019531 438.777344 C 243.4375 435.546875 244.109375 431.695312 246.019531 429.054688 C 243.023438 417.992188 236.5625 407.675781 225.835938 402.917969 C 223.84375 401.984375 222.785156 400.589844 222.269531 399.0625 C 216.558594 402.839844 210.949219 406.742188 205.132812 410.183594 C 203.738281 412.84375 201.101562 414.757812 197.898438 414.164062 Z M 183.761719 383.835938 C 186.527344 386.757812 189.367188 389.472656 192.289062 392.058594 C 192.832031 390.53125 193.347656 388.953125 193.738281 387.351562 C 190.429688 386.109375 187.121094 384.972656 183.761719 383.835938 Z M 101.988281 386.550781 C 99.792969 387.609375 97.59375 388.800781 95.371094 390.066406 C 94.570312 390.609375 93.640625 390.867188 92.789062 390.996094 C 91.1875 395.238281 90.410156 400.253906 89.480469 404.363281 C 131.011719 431.695312 172.648438 459.046875 217.101562 481.464844 C 220.796875 473.734375 227.152344 466.984375 228.757812 458.503906 C 212.785156 442.757812 191.902344 433.632812 171.792969 424.015625 C 147.964844 412.714844 125.144531 399.195312 101.988281 386.550781 Z M 133.546875 551.585938 C 148.871094 556.082031 165.953125 554.144531 180.503906 547.394531 C 177.402344 542.5625 173.964844 538.0625 169.855469 533.820312 C 160.65625 535.683594 150.601562 534.832031 141.53125 532.167969 C 136.570312 537.546875 134.734375 544.5 133.546875 551.585938 Z M 128.710938 505.175781 C 135.84375 517.222656 147.113281 519.601562 160.347656 519.058594 C 168.71875 518.671875 177.609375 516.371094 182.160156 508.742188 C 186.472656 501.65625 187.535156 488.550781 179.859375 483.402344 C 177.273438 481.621094 176.394531 479.085938 176.550781 476.65625 C 167.144531 471.277344 157.683594 465.667969 148.429688 460.03125 C 146.957031 460.832031 145.304688 461.425781 143.261719 461.144531 C 116.460938 457.445312 119.511719 489.558594 128.710938 505.175781 Z M 88.007812 490.152344 C 89.480469 508.40625 98.472656 526.945312 112.429688 539.71875 C 114.679688 541.914062 117.132812 543.75 119.71875 545.351562 C 121.089844 538.269531 123.621094 531.648438 127.703125 525.832031 C 126.722656 525.109375 125.792969 524.4375 124.886719 523.636719 C 115.015625 515.359375 109.25 503.261719 107.597656 491.003906 L 91.652344 491.003906 C 90.152344 491.003906 88.9375 490.617188 88.007812 490.152344 Z M 91.652344 483.328125 L 107.132812 483.328125 C 107.261719 467.503906 114.550781 453.023438 129.4375 448.113281 C 124.679688 445.136719 119.925781 442.085938 115.273438 438.984375 C 96.277344 448.992188 88.085938 466.105469 87.878906 484.257812 C 88.808594 483.742188 89.996094 483.328125 91.652344 483.328125 Z M 188.902344 524.4375 C 187.585938 525.625 186.214844 526.816406 184.664062 527.875 C 187.972656 531.441406 190.894531 535.347656 193.476562 539.585938 C 206.53125 529.402344 215.058594 514.429688 213.792969 496.511719 C 209.035156 494.1875 204.332031 491.808594 199.550781 489.351562 C 201.957031 501.476562 197.71875 515.4375 188.902344 524.4375 Z M 77.644531 414.371094 C 75.265625 412.769531 74.335938 410.464844 74.335938 408.269531 C 74.335938 408.0625 74.257812 408.011719 74.257812 407.882812 C 50.507812 428.125 41.433594 464.324219 41.359375 494.109375 C 41.304688 531.855469 63.867188 564.824219 95.941406 582.945312 C 158.535156 618.160156 252.558594 582.222656 259.175781 507.628906 C 259.175781 507.554688 259.175781 507.554688 259.175781 507.476562 C 249.585938 501.140625 240 494.652344 230.253906 488.421875 C 230.074219 488.832031 229.789062 489.222656 229.6875 489.6875 C 229.609375 489.816406 229.480469 489.894531 229.324219 490.152344 C 229.738281 491.808594 229.324219 493.667969 228.421875 495.324219 C 231.988281 555.539062 161.921875 584.601562 111.164062 557.117188 C 65.1875 532.296875 59.164062 459.101562 101.394531 430.039062 C 93.511719 424.816406 85.578125 419.59375 77.644531 414.371094 Z M 280.496094 473.191406 C 284.839844 466.777344 289.621094 460.625 294.917969 454.988281 C 286.234375 451.085938 277.109375 448.371094 267.910156 445.679688 C 272.691406 454.472656 276.644531 463.882812 280.496094 473.191406 Z M 287.886719 491.546875 C 288.300781 492.53125 288.351562 493.382812 288.351562 494.1875 C 300.914062 493.046875 313.5 492.660156 326.136719 492.53125 C 322.105469 481.285156 317.273438 468.691406 315.152344 457.1875 C 314.042969 459.359375 312.105469 461.011719 309.804688 461.296875 C 300.808594 469.289062 293.574219 479.679688 287.292969 490.074219 C 287.578125 490.617188 287.679688 491.082031 287.886719 491.546875 Z M 314.6875 521.644531 C 314.765625 521.644531 314.765625 521.644531 314.816406 521.644531 C 314.949219 521.644531 315.023438 522.1875 315.230469 522.058594 C 321.175781 518.414062 326.734375 515.308594 332.238281 511.921875 C 331.953125 510.476562 331.488281 509 331.152344 507.292969 C 316.34375 507.292969 302.644531 506.75 289.027344 508.019531 C 297.347656 513.242188 305.824219 521.644531 314.6875 521.644531 Z M 442.695312 529.324219 L 466.136719 529.324219 C 493.195312 511.871094 523.355469 499.28125 547.445312 477.5625 C 549.097656 473.347656 551.425781 469.234375 554.449219 465.332031 C 570.472656 445.136719 592.179688 430.789062 613.992188 416.671875 C 626.839844 389.859375 595.335938 374.371094 570.136719 364.132812 C 559.824219 379.671875 550.027344 395.574219 537.90625 409.535156 C 539.769531 414.242188 535.867188 421.378906 529.070312 420.316406 C 513.71875 417.679688 498.367188 415.144531 483.066406 412.636719 C 473.554688 411.0625 477.585938 396.609375 487.046875 398.210938 C 499.011719 400.203125 510.925781 402.191406 522.839844 404.15625 C 535.867188 390.453125 545.660156 374.191406 555.921875 358.496094 C 555.535156 358.367188 555.070312 358.160156 554.734375 357.980469 C 533.953125 349.421875 513.304688 341.613281 493.972656 330.417969 C 493.195312 331.089844 492.136719 331.761719 490.871094 332.152344 C 457.738281 340.296875 437.425781 356.636719 419.902344 384.121094 C 449.855469 404.441406 485.597656 431.695312 454.222656 466.574219 C 442.050781 480.144531 422.925781 500.726562 403.414062 502.332031 C 378.394531 504.371094 360.796875 512.90625 341.800781 524.179688 C 375.421875 525.832031 409.097656 528.546875 442.695312 529.324219 Z M 548.039062 529.324219 C 545.789062 519.601562 543.878906 509.542969 543.800781 499.824219 C 528.398438 510.941406 511.648438 519.859375 494.980469 529.324219 Z M 739.3125 528.988281 C 741.097656 526.761719 742.878906 524.488281 744.40625 521.980469 C 755.207031 504.113281 750.816406 480.6875 738.589844 463.882812 C 738.332031 463.882812 738.203125 463.933594 737.917969 464.011719 C 735.023438 464.066406 732.828125 465.925781 731.121094 468.226562 C 739.648438 478.027344 744.664062 491.472656 745.464844 505.097656 C 745.929688 513.835938 743.550781 521.929688 739.3125 528.988281 Z M 605.257812 572.628906 C 633.714844 601.613281 682.015625 600.605469 717.734375 589.359375 C 753.269531 578.113281 774.179688 550.574219 784.566406 516.035156 C 795.472656 479.550781 791.390625 432.496094 750.039062 419 C 748.695312 418.535156 747.714844 417.730469 746.9375 416.929688 C 737.066406 419.773438 726.933594 421.714844 717.476562 425.875 C 715.613281 426.679688 714.117188 427.660156 712.71875 428.71875 C 744.09375 436.320312 762.132812 465.074219 764.796875 497.367188 C 768.3125 540.441406 725.152344 566.734375 688.117188 571.363281 C 654.492188 575.476562 612.960938 567.925781 600.503906 531.3125 C 589.132812 497.625 599.832031 454.472656 631.335938 435.933594 C 630.355469 432.703125 629.34375 429.574219 628.363281 426.394531 C 614.070312 435.933594 599.519531 445.0625 585.953125 455.609375 C 585.875 456.644531 585.617188 457.78125 584.765625 459.046875 C 562.539062 490.667969 580.394531 547.1875 605.257812 572.628906 Z M 674.804688 393.453125 C 673.539062 393.636719 672.429688 393.503906 671.367188 393.296875 C 666.664062 397.695312 661.832031 401.726562 656.816406 405.761719 C 661.703125 423.550781 673.410156 475.054688 691.21875 473.347656 C 688.246094 456.59375 684.730469 435.753906 697.160156 422.824219 C 707.421875 412.25 720.472656 408.734375 733.808594 405.089844 C 716.027344 394.179688 696.902344 389.550781 674.804688 393.453125 Z M 633.585938 535.8125 C 630.949219 537.804688 628.957031 540.648438 627.304688 543.957031 C 636.839844 551.507812 649.738281 555.460938 662.890625 556.808594 C 650.847656 552.902344 640.925781 545.351562 633.585938 535.8125 Z M 727.398438 452.015625 C 720.730469 446.714844 713.054688 443.226562 704.785156 442.21875 C 704.65625 442.21875 704.65625 442.164062 704.449219 442.164062 C 703.726562 445.679688 703.46875 449.429688 703.597656 453.28125 C 709.542969 453.957031 714.890625 455.867188 719.542969 458.636719 C 721.714844 455.867188 724.351562 453.671875 727.398438 452.015625 Z M 705.636719 469.027344 C 705.972656 471.484375 706.441406 473.992188 706.828125 476.242188 C 707.421875 479.628906 706.492188 482.859375 703.390625 484.722656 C 682.535156 497.238281 668.578125 481.621094 658.9375 460.574219 C 657.929688 460.625 656.949219 460.703125 656.015625 460.832031 C 663.769531 479.964844 673.746094 498.011719 688.296875 511.328125 C 695.507812 517.738281 684.9375 528.339844 677.777344 521.929688 C 662.246094 507.761719 651.519531 488.703125 643.042969 468.433594 C 632.394531 483.921875 632.058594 502.925781 639.605469 518.28125 C 642.398438 518.800781 644.699219 520.453125 645.5 523.503906 C 645.886719 524.824219 645.757812 526.144531 645.371094 527.488281 C 651.726562 535.476562 660.722656 541.578125 671.757812 544.421875 C 691.683594 549.515625 716.027344 537.933594 726.546875 521.050781 C 738.253906 502.460938 725.28125 475.054688 705.636719 469.027344 Z M 635.1875 454.394531 C 635.496094 453.414062 635.960938 452.558594 636.683594 451.757812 C 636.582031 451.371094 636.425781 450.957031 636.21875 450.566406 C 617.585938 463.546875 610.96875 486.25 610.96875 508.871094 C 610.96875 518.207031 613.0625 525.882812 616.835938 532.246094 C 619.292969 528.546875 622.210938 525.160156 625.777344 522.703125 C 616.269531 501.476562 617.765625 475.183594 635.1875 454.394531 Z M 693.722656 345.128906 C 699.953125 341.226562 706.363281 337.503906 712.925781 334.195312 C 716.828125 332.230469 719.285156 333.210938 720.1875 333.804688 C 719 332.539062 715.613281 328.039062 709.800781 314.621094 C 706.105469 306.011719 701.8125 297.996094 697.03125 290.394531 C 681.628906 286.414062 667.800781 278.347656 651.984375 276.5625 C 653.5625 283.050781 654.828125 289.59375 655.808594 296.082031 C 656.351562 300.066406 654.828125 304.148438 650.539062 305.289062 C 623.609375 312.554688 595.671875 312.5 567.964844 313.484375 C 566.957031 314.078125 565.769531 314.492188 564.191406 314.492188 C 561.53125 314.414062 558.6875 314.285156 555.714844 314.027344 C 553 314.15625 550.363281 314.285156 547.652344 314.492188 C 545.609375 314.621094 544.136719 313.949219 542.949219 313.019531 C 528.707031 311.957031 513.820312 311.699219 502.242188 317.851562 C 536.539062 337.789062 575.484375 348.90625 610.039062 368.683594 C 626.761719 378.277344 634.515625 389.859375 633.585938 403.847656 C 643.585938 397.023438 653.382812 389.9375 662.167969 381.921875 C 673.746094 371.476562 680.492188 353.457031 693.722656 345.128906 Z M 665.8125 251.457031 C 647.746094 233.074219 628.570312 212.207031 607.921875 196.667969 C 593.164062 201.089844 617.171875 217.585938 620.222656 220.351562 C 626.582031 226.246094 631.800781 233.410156 636.632812 240.496094 C 641.078125 246.828125 644.4375 253.914062 647.230469 261.203125 L 647.28125 261.203125 C 659.917969 261.539062 671.03125 265.832031 682.429688 269.941406 C 677.261719 263.660156 671.757812 257.480469 665.8125 251.457031 Z M 608.050781 271.777344 C 608.464844 280.59375 609.109375 289.59375 618.644531 290.859375 C 621.695312 291.246094 623.195312 293.109375 623.738281 295.28125 C 629.164062 294.558594 634.566406 293.574219 639.941406 292.359375 C 638.160156 283.515625 635.703125 275.089844 632.601562 267.152344 C 624.460938 267.28125 615.984375 268.882812 608.050781 271.777344 Z M 594.945312 285.949219 C 594.480469 283.90625 594.429688 281.191406 594.351562 278.347656 C 591.457031 280.128906 588.667969 282.042969 586.160156 284.085938 C 578.871094 290.316406 568.222656 279.871094 575.5625 273.640625 C 580.527344 269.398438 586.210938 265.703125 592.234375 262.574219 C 591.457031 260.53125 590.320312 258.746094 588.667969 257.480469 C 584.6875 254.585938 576.417969 253.863281 571.789062 255.828125 C 567.835938 257.609375 568.015625 263.324219 568.015625 267.023438 C 567.964844 277.621094 570.9375 287.859375 571.609375 298.460938 C 581.066406 298.125 590.65625 297.945312 600.191406 297.402344 C 597.609375 294.300781 595.878906 290.523438 594.945312 285.949219 Z M 477.042969 243.183594 C 455.542969 238.167969 431.480469 241.683594 409.691406 242.871094 C 384.082031 244.320312 370.925781 258.28125 359.554688 279.457031 C 352.265625 293.160156 344.203125 311.570312 358.238281 324.136719 C 366.222656 331.347656 376.226562 336.910156 385.347656 342.675781 C 385.425781 342.675781 385.425781 342.804688 385.476562 342.882812 C 393.074219 340.089844 400.621094 337.191406 408.167969 333.933594 C 435.304688 322.09375 461.433594 309.191406 490.664062 303.632812 C 492.730469 303.21875 494.335938 303.683594 495.78125 304.410156 C 504.980469 299.78125 515.371094 298.253906 526.148438 297.996094 C 526.148438 296.808594 526.328125 295.539062 527.128906 294.222656 C 545.996094 264.101562 495.523438 247.421875 477.042969 243.183594 Z M 339.835938 420.78125 C 346.246094 420.109375 353.664062 420.238281 359.683594 422.902344 C 367.539062 426.472656 374.492188 415.429688 380.980469 410.3125 C 392.765625 400.925781 409.769531 402.453125 425.25 405.554688 C 417.316406 399.789062 409.691406 395.238281 405.921875 392.730469 C 402.558594 390.402344 401.035156 386.109375 403.285156 382.386719 C 417.445312 358.496094 433.703125 341.355469 455.359375 329.773438 C 441.972656 334.867188 428.894531 340.96875 415.664062 346.835938 C 391.316406 357.824219 365.164062 364.261719 341.359375 376.363281 C 339.628906 393.375 332.339844 409.277344 324.949219 424.894531 C 328.722656 422.773438 333.605469 421.300781 339.835938 420.78125 Z M 398.039062 451.628906 C 390.980469 453.800781 383.695312 457.832031 380.128906 464.453125 C 375.5 472.597656 385.347656 481.285156 390.699219 485.707031 C 391.707031 486.585938 392.300781 487.4375 392.6875 488.367188 C 394.546875 488.238281 396.203125 487.902344 398.039062 487.824219 C 408.375 487.566406 420.9375 478.90625 431.660156 468.847656 C 430.808594 467.375 430.214844 465.539062 430.601562 463.46875 C 433.523438 445.472656 408.582031 448.371094 398.039062 451.628906 Z M 365.5 460.832031 C 369.480469 448.914062 381.445312 441.828125 392.636719 437.71875 C 412.664062 430.324219 440.0625 434.484375 444.710938 454.9375 C 447.269531 451.964844 449.46875 449.042969 451.25 446.535156 C 456.214844 439.320312 452.570312 431.046875 445.488281 422.953125 C 443.964844 424.015625 441.972656 424.609375 439.671875 424.167969 C 418.765625 419.59375 400.441406 414.035156 381.78125 428.589844 C 375.035156 433.8125 375.292969 441.699219 364.644531 440.71875 C 348.417969 439.320312 324.613281 426.859375 330.167969 457.058594 C 333.140625 473.269531 341.75 488.085938 345.726562 504.164062 C 355.03125 498.8125 364.515625 494.316406 374.957031 491.339844 C 367.074219 483.199219 361.597656 472.546875 365.5 460.832031 Z M 237.078125 374.113281 C 229.015625 372.535156 220.949219 370.546875 212.9375 368.167969 C 212.34375 371.605469 211.75 375.042969 211.027344 378.40625 C 213.792969 379.671875 216.558594 380.941406 219.347656 382.257812 C 219.8125 382.515625 220.019531 382.800781 220.332031 383.113281 C 225.757812 379.75 231.339844 376.570312 237.078125 374.113281 Z M 235.5 391.074219 C 249.070312 398.210938 257.855469 413.105469 261.113281 427.660156 L 261.113281 427.996094 C 274.605469 432.238281 288.429688 435.753906 301.378906 441.570312 C 301.457031 441.15625 301.378906 440.847656 301.585938 440.433594 C 308.71875 423.03125 319.78125 405.296875 324.535156 386.550781 C 306.753906 383.578125 289.230469 381.714844 271.8125 379.492188 C 270.832031 381.871094 268.761719 383.65625 265.402344 383.527344 C 254.34375 382.984375 244.675781 386.371094 235.5 391.074219 Z M 340.6875 331.039062 C 322.570312 331.089844 307.867188 332.953125 293.730469 342.882812 C 305.695312 351.542969 319.730469 356.84375 332.625 363.980469 C 343.867188 358.160156 355.652344 353.585938 367.539062 349.242188 C 359.140625 343.992188 350.019531 337.789062 343.195312 330.574219 C 342.421875 330.832031 341.617188 331.039062 340.6875 331.039062 Z M 333.53125 314.414062 C 332.753906 314.414062 331.953125 314.492188 331.101562 314.15625 C 306.210938 306.863281 280.082031 309.707031 255.402344 301.847656 C 239.066406 296.601562 228.34375 289.464844 216.039062 278.085938 C 204.074219 267.023438 206.066406 289.929688 207.511719 295.488281 C 209.683594 303.375 213.792969 310.5625 218.367188 317.335938 C 229.738281 334.402344 260.828125 330.703125 278.894531 335.589844 C 278.894531 335.589844 278.945312 335.589844 278.945312 335.667969 C 295.640625 321.5 313.035156 317 334.148438 316.328125 C 333.890625 315.605469 333.738281 315.007812 333.53125 314.414062 Z M 166.625 251.792969 C 154.039062 252.335938 138.121094 248.898438 124.730469 251.664062 C 149.15625 254.84375 173.371094 260.738281 197.457031 264.902344 C 199.757812 262.859375 202.421875 261.59375 205.1875 261.074219 C 195.855469 249.078125 181.824219 251.070312 166.625 251.792969 Z M 12.257812 386.035156 C 19.46875 377.757812 26.082031 368.941406 32.441406 359.945312 C 31.589844 359.636719 30.527344 359.300781 29.675781 358.964844 C 20.605469 355.78125 24.507812 341.355469 33.628906 344.535156 C 36.136719 345.390625 38.667969 346.398438 41.253906 347.378906 C 45.933594 340.167969 50.558594 332.875 55.003906 325.453125 C 44.949219 328.039062 34.691406 329.902344 23.988281 329.851562 C 14.324219 329.773438 14.324219 314.800781 23.988281 314.878906 C 48.980469 315.085938 71.335938 303.941406 95.21875 298.667969 C 79.683594 289.800781 63.53125 279.585938 55.855469 263.503906 C 53.867188 259.421875 55.210938 253.523438 60.300781 252.515625 C 68.441406 250.863281 76.636719 249.957031 84.699219 249.621094 C 76.246094 247.035156 67.769531 244.371094 59.757812 240.546875 C 51.101562 236.433594 58.726562 223.53125 67.382812 227.695312 C 79.738281 233.667969 93.5625 236.046875 106.410156 241.011719 C 107.210938 241.347656 107.804688 241.8125 108.398438 242.277344 C 123.542969 234.183594 141.609375 236.511719 160.605469 236.898438 C 186.527344 237.496094 208.960938 232.660156 221.984375 259.730469 C 222.785156 261.386719 222.863281 263.039062 222.527344 264.515625 C 223.976562 265.445312 225.371094 266.425781 226.636719 267.488281 C 258.582031 295.875 295.769531 288.609375 334.074219 299.523438 C 334.460938 297.996094 335.003906 296.546875 335.726562 295.023438 C 350.484375 263.660156 363.042969 236.382812 399.589844 229.167969 C 436.15625 221.878906 478.050781 223.792969 511.777344 239.953125 C 536.796875 251.871094 555.636719 272.246094 541.941406 298.332031 C 546.332031 298.539062 550.675781 298.847656 554.914062 299.132812 C 555.535156 299.054688 556.101562 299.054688 556.722656 298.980469 C 555.714844 277.542969 543.542969 243.855469 574.96875 240.082031 C 588.332031 238.503906 600.503906 244.835938 605.59375 256.835938 C 612.082031 254.714844 618.828125 253.113281 625.574219 252.515625 C 617.378906 238.554688 606.1875 226.453125 591.121094 216.320312 C 589.054688 215 587.21875 212.621094 587.398438 209.90625 C 588.667969 196.851562 593.5 187.207031 603.757812 182.964844 C 605.59375 180.71875 608.515625 179.449219 611.566406 180.976562 C 612.417969 180.921875 613.21875 180.769531 613.992188 180.71875 C 619.109375 180.378906 621.410156 184.234375 621.230469 188.113281 C 649.816406 210.371094 677.648438 239.410156 699.824219 267.152344 C 714.039062 284.964844 738.332031 320.179688 727.011719 344.121094 C 725.824219 346.578125 723.03125 347.714844 720.472656 347.84375 C 705.378906 348.777344 695.507812 366.382812 686.589844 377.5 C 712.382812 376.699219 734.558594 385.566406 756.0625 402.660156 C 757.25 403.640625 757.972656 404.882812 758.179688 406.097656 C 797.335938 421.378906 808.265625 460.417969 803.097656 500.289062 C 797.128906 545.742188 772.007812 582.558594 729.726562 600.683594 C 685.789062 619.558594 631.257812 615.035156 594.6875 583.207031 C 584.894531 574.59375 576.570312 561.953125 570.421875 547.601562 C 567.214844 548.714844 563.390625 547.863281 561.605469 544.34375 C 559.023438 545.871094 555.636719 545.949219 553.257812 544.214844 C 552.742188 544.421875 552.148438 544.679688 551.476562 544.679688 L 469.78125 544.679688 C 469.78125 544.679688 469.703125 544.757812 469.625 544.757812 C 466.785156 546.671875 464.019531 546.207031 462.027344 544.679688 L 428.894531 544.679688 C 427.757812 544.679688 426.90625 544.292969 426.105469 543.75 C 389.972656 542.300781 354.050781 539.121094 317.917969 538.269531 C 316.007812 539.199219 313.835938 539.535156 311.382812 538.398438 C 311.304688 538.269531 311.121094 538.191406 311.046875 538.140625 C 309.855469 538.140625 308.667969 538.140625 307.476562 538.0625 C 303.707031 538.0625 301.457031 535.761719 300.65625 532.917969 C 291.195312 527.953125 281.996094 522.316406 272.949219 516.5 C 259.253906 599.960938 160.863281 630.261719 88.421875 595.796875 C 13.574219 560.246094 1.867188 428.796875 77.644531 387.429688 C 77.824219 387.351562 78.03125 387.351562 78.238281 387.222656 C 75.265625 384.457031 71.957031 381.792969 67.976562 380.679688 C 58.726562 377.964844 62.601562 363.511719 71.878906 366.253906 C 77.230469 367.753906 81.933594 370.753906 86.09375 374.320312 C 88.679688 371.863281 91.804688 369.820312 96.019531 368.761719 C 98.601562 368.167969 100.644531 368.8125 102.300781 370.132812 C 116.332031 364.445312 130.882812 362.195312 145.460938 362.402344 C 142.875 359.636719 140.210938 356.972656 137.449219 354.464844 C 130.367188 347.898438 140.9375 337.375 148.042969 343.863281 C 154.761719 350.09375 160.941406 357.230469 167.066406 364.597656 C 177.144531 366.382812 187.199219 369.148438 197.042969 372.71875 C 197.640625 369.5625 198.183594 366.382812 198.699219 363.203125 C 190.84375 360.074219 183.089844 356.507812 175.363281 352.085938 C 152.851562 339.105469 133.339844 321.628906 111.242188 308.054688 C 110.515625 309.785156 109.070312 311.183594 106.410156 311.648438 C 95.839844 313.355469 85.757812 316.40625 75.652344 319.457031 C 75.445312 319.972656 75.367188 320.4375 75.109375 321.035156 C 59.707031 347.507812 42.960938 373.390625 22.851562 396.609375 C 16.546875 403.898438 6.054688 393.296875 12.257812 386.035156"/><path fill="#333" d="M 183.761719 383.835938 C 186.527344 386.757812 189.367188 389.472656 192.289062 392.058594 C 192.832031 390.53125 193.347656 388.953125 193.738281 387.351562 C 190.429688 386.109375 187.121094 384.972656 183.761719 383.835938"/><path fill="#333" d="M 41.359375 494.109375 C 41.304688 531.855469 63.867188 564.824219 95.941406 582.945312 C 158.535156 618.160156 252.558594 582.222656 259.175781 507.628906 C 259.175781 507.554688 259.175781 507.554688 259.175781 507.476562 C 249.585938 501.140625 240 494.652344 230.253906 488.421875 C 230.074219 488.832031 229.789062 489.222656 229.6875 489.6875 C 229.609375 489.816406 229.480469 489.894531 229.324219 490.152344 C 229.738281 491.808594 229.324219 493.667969 228.421875 495.324219 C 231.988281 555.539062 161.921875 584.601562 111.164062 557.117188 C 65.1875 532.296875 59.164062 459.101562 101.394531 430.039062 C 93.511719 424.816406 85.578125 419.59375 77.644531 414.371094 C 75.265625 412.769531 74.335938 410.464844 74.335938 408.269531 C 74.335938 408.0625 74.257812 408.011719 74.257812 407.882812 C 50.507812 428.125 41.433594 464.324219 41.359375 494.109375"/><path fill="#333" d="M 120.90625 379.878906 C 142.460938 391.800781 163.964844 403.847656 186.214844 414.5 C 187.585938 415.09375 188.902344 415.742188 190.300781 416.414062 C 209.941406 425.824219 229.222656 435.882812 243.773438 452.480469 C 247.132812 456.257812 245.761719 460.960938 242.839844 463.546875 C 241.832031 467.839844 240 471.742188 237.800781 475.519531 C 247.726562 481.878906 257.597656 488.421875 267.367188 494.988281 C 267.523438 494.523438 267.574219 494.054688 267.832031 493.589844 C 268.761719 492.015625 269.769531 490.359375 270.753906 488.757812 C 263.878906 471.484375 257.597656 453.335938 246.019531 438.777344 C 243.4375 435.546875 244.109375 431.695312 246.019531 429.054688 C 243.023438 417.992188 236.5625 407.675781 225.835938 402.917969 C 223.84375 401.984375 222.785156 400.589844 222.269531 399.0625 C 216.558594 402.839844 210.949219 406.742188 205.132812 410.183594 C 203.738281 412.84375 201.101562 414.757812 197.898438 414.164062 C 197.847656 414.242188 197.71875 414.292969 197.640625 414.371094 C 195.261719 415.558594 192.9375 415.558594 191.023438 414.679688 C 188.050781 413.492188 186.0625 410.3125 186.605469 406.820312 C 176.550781 398.546875 167.945312 388.410156 159.46875 378.355469 C 146.570312 376.570312 133.546875 376.90625 120.90625 379.878906"/><path fill="#FFF" d="M 92.789062 390.996094 C 91.1875 395.210938 90.410156 400.28125 89.507812 404.339844 C 131.039062 431.71875 172.648438 459.023438 217.101562 481.492188 C 220.769531 473.734375 227.152344 466.984375 228.757812 458.480469 C 212.808594 442.757812 191.902344 433.632812 171.820312 424.066406 C 147.964844 412.714844 125.144531 399.21875 101.988281 386.550781 C 99.765625 387.636719 97.621094 388.773438 95.398438 390.09375 C 94.546875 390.636719 93.640625 390.84375 92.789062 390.996094"/><path fill="#FFF" d="M 143.289062 461.167969 C 116.460938 457.472656 119.539062 489.53125 128.738281 505.175781 C 135.871094 517.222656 147.140625 519.574219 160.292969 519.058594 C 168.746094 518.671875 177.636719 516.371094 182.160156 508.769531 C 186.449219 501.632812 187.507812 488.523438 179.859375 483.402344 C 177.246094 481.644531 176.394531 479.113281 176.550781 476.65625 C 167.117188 471.277344 157.710938 465.695312 148.429688 460.003906 C 146.984375 460.859375 145.277344 461.402344 143.289062 461.167969"/><path fill="#333" d="M 166.601562 251.765625 C 154.039062 252.308594 138.09375 248.84375 124.757812 251.691406 C 149.128906 254.84375 173.34375 260.738281 197.484375 264.875 C 199.785156 262.886719 202.394531 261.59375 205.238281 261.050781 C 195.855469 249.078125 181.847656 251.070312 166.601562 251.765625"/><path fill="#333" d="M 216.039062 278.0625 C 204.074219 267.023438 206.066406 289.957031 207.511719 295.460938 C 209.683594 303.375 213.816406 310.5625 218.316406 317.335938 C 229.738281 334.425781 260.855469 330.675781 278.867188 335.5625 C 278.867188 335.5625 278.945312 335.5625 278.945312 335.640625 C 295.667969 321.472656 313.0625 317.027344 334.125 316.328125 C 333.917969 315.628906 333.761719 315.035156 333.503906 314.414062 C 332.753906 314.414062 331.980469 314.492188 331.074219 314.179688 C 306.238281 306.890625 280.109375 309.734375 255.425781 301.824219 C 239.09375 296.625 228.367188 289.488281 216.039062 278.0625"/><path fill="#808080" d="M 267.910156 445.679688 C 272.664062 454.5 276.644531 463.859375 280.496094 473.191406 C 284.839844 466.753906 289.59375 460.625 294.890625 455.015625 C 286.234375 451.109375 277.109375 448.34375 267.910156 445.679688"/><path fill="#808080" d="M 287.292969 490.074219 C 287.527344 490.59375 287.679688 491.058594 287.914062 491.523438 C 288.300781 492.53125 288.378906 493.359375 288.378906 494.210938 C 300.941406 493.046875 313.527344 492.660156 326.164062 492.53125 C 322.105469 481.257812 317.273438 468.667969 315.128906 457.1875 C 314.042969 459.410156 312.128906 461.011719 309.753906 461.324219 C 300.785156 469.289062 293.574219 479.707031 287.292969 490.074219"/><path fill="#808080" d="M 289 508.019531 C 297.347656 513.214844 305.851562 521.644531 314.664062 521.644531 C 314.742188 521.644531 314.742188 521.644531 314.816406 521.644531 C 314.972656 521.644531 315.050781 522.1875 315.207031 522.03125 C 321.175781 518.4375 326.707031 515.285156 332.210938 511.921875 C 331.980469 510.449219 331.515625 509 331.152344 507.320312 C 316.34375 507.320312 302.621094 506.777344 289 508.019531"/><path fill="#808080" d="M 364.621094 440.691406 C 348.46875 439.320312 324.640625 426.882812 330.144531 457.03125 C 333.140625 473.269531 341.722656 488.085938 345.703125 504.164062 C 355.058594 498.8125 364.492188 494.289062 374.984375 491.367188 C 367.074219 483.171875 361.570312 472.519531 365.472656 460.859375 C 369.480469 448.886719 381.417969 441.855469 392.609375 437.691406 C 412.691406 430.347656 440.0625 434.484375 444.738281 454.9375 C 447.246094 451.964844 449.46875 449.042969 451.25 446.507812 C 456.214844 439.320312 452.542969 431.023438 445.488281 422.980469 C 443.964844 424.066406 441.972656 424.582031 439.671875 424.117188 C 418.738281 419.621094 400.441406 414.007812 381.808594 428.566406 C 375.0625 433.789062 375.292969 441.675781 364.621094 440.691406"/><path fill="#808080" d="M 380.128906 464.453125 C 375.527344 472.597656 385.320312 481.257812 390.699219 485.707031 C 391.679688 486.53125 392.300781 487.464844 392.6875 488.367188 C 394.523438 488.238281 396.203125 487.929688 398.039062 487.851562 C 408.402344 487.542969 420.960938 478.878906 431.6875 468.820312 C 430.78125 467.375 430.238281 465.539062 430.628906 463.46875 C 433.546875 445.449219 408.554688 448.34375 398.039062 451.652344 C 391.007812 453.800781 383.71875 457.859375 380.128906 464.453125"/><path fill="#333" d="M 568.042969 267.023438 C 567.964844 277.597656 570.9375 287.886719 571.558594 298.460938 C 581.066406 298.152344 590.65625 297.917969 600.167969 297.375 C 597.632812 294.324219 595.851562 290.5 594.945312 285.972656 C 594.480469 283.90625 594.402344 281.214844 594.328125 278.371094 C 591.433594 280.128906 588.667969 282.042969 586.132812 284.113281 C 578.84375 290.34375 568.199219 279.820312 575.539062 273.613281 C 580.527344 269.398438 586.210938 265.730469 592.257812 262.574219 C 591.433594 260.507812 590.347656 258.746094 588.667969 257.53125 C 584.660156 254.609375 576.390625 253.835938 571.789062 255.828125 C 567.808594 257.585938 568.042969 263.351562 568.042969 267.023438"/><path fill="#333" d="M 584.765625 459.023438 C 562.539062 490.695312 580.371094 547.1875 605.285156 572.65625 C 633.714844 601.640625 682.015625 600.632812 717.707031 589.359375 C 753.269531 578.085938 774.203125 550.550781 784.566406 516.058594 C 795.527344 479.578125 791.363281 432.496094 750.066406 419 C 748.667969 418.535156 747.6875 417.757812 746.914062 416.929688 C 737.039062 419.75 726.910156 421.6875 717.5 425.902344 C 715.640625 426.652344 714.117188 427.660156 712.746094 428.71875 C 744.09375 436.320312 762.1875 465.074219 764.769531 497.367188 C 768.3125 540.441406 725.152344 566.734375 688.140625 571.339844 C 654.492188 575.476562 612.960938 567.898438 600.527344 531.3125 C 589.105469 497.652344 599.832031 454.5 631.335938 435.933594 C 630.355469 432.703125 629.34375 429.574219 628.363281 426.417969 C 614.097656 435.933594 599.546875 445.0625 585.980469 455.558594 C 585.902344 456.644531 585.589844 457.78125 584.765625 459.023438"/><path fill="#FFF" d="M 607.894531 196.644531 C 593.1875 201.089844 617.171875 217.5625 620.222656 220.328125 C 626.605469 226.222656 631.800781 233.359375 636.632812 240.496094 C 641.078125 246.855469 644.464844 253.914062 647.203125 261.203125 L 647.28125 261.203125 C 659.917969 261.515625 671.03125 265.804688 682.40625 269.941406 C 677.261719 263.660156 671.730469 257.53125 665.839844 251.457031 C 647.746094 233.074219 628.597656 212.207031 607.894531 196.644531"/><path fill="#FFF" d="M 643.070312 468.460938 C 632.421875 483.921875 632.035156 502.949219 639.632812 518.28125 C 642.398438 518.824219 644.699219 520.429688 645.523438 523.503906 C 645.910156 524.796875 645.757812 526.167969 645.371094 527.488281 C 651.726562 535.449219 660.695312 541.605469 671.730469 544.421875 C 691.65625 549.488281 716.027344 537.90625 726.519531 521.050781 C 738.253906 502.484375 725.304688 475.054688 705.613281 469.054688 C 706 471.511719 706.464844 473.96875 706.851562 476.269531 C 707.449219 479.628906 706.515625 482.859375 703.390625 484.695312 C 682.535156 497.183594 668.578125 481.644531 658.9375 460.546875 C 657.957031 460.625 656.949219 460.703125 656.015625 460.859375 C 663.769531 479.941406 673.71875 498.039062 688.296875 511.300781 C 695.480469 517.738281 684.910156 528.339844 677.804688 521.875 C 662.246094 507.785156 651.496094 488.679688 643.070312 468.460938"/><path fill="#FFF" d="M 499.039062 280.078125 C 497.796875 278.371094 495.1875 277.75 493.300781 277.132812 C 484.203125 274.082031 488.105469 259.628906 497.253906 262.703125 C 503.355469 264.746094 508.058594 267.28125 511.960938 272.527344 C 514.390625 275.8125 512.503906 280.855469 509.273438 282.765625 C 505.472656 284.992188 501.46875 283.335938 499.039062 280.078125"/><path fill="#FFF" d="M 470.296875 272.011719 C 446.910156 265.160156 414.550781 262.210938 394.546875 279.042969 C 387.234375 285.199219 376.585938 274.675781 383.976562 268.46875 C 408.480469 247.863281 445.101562 249.027344 474.277344 257.585938 C 483.503906 260.300781 479.578125 274.726562 470.296875 272.011719"/><path fill="#FFF" d="M 653.097656 333.339844 C 645.730469 334.582031 638.496094 336.132812 631.386719 338.460938 C 622.1875 341.457031 618.308594 327.003906 627.433594 324.058594 C 634.539062 321.730469 641.75 320.179688 649.140625 318.9375 C 653.148438 318.265625 657.179688 319.921875 658.316406 324.160156 C 659.324219 327.78125 657.128906 332.667969 653.097656 333.339844"/><path fill="#FFF" d="M 603.863281 340.011719 C 600.453125 340.011719 597.039062 340.011719 593.628906 340.011719 C 584.015625 340.011719 584.015625 325.039062 593.628906 325.039062 C 597.039062 325.039062 600.453125 325.039062 603.863281 325.039062 C 613.503906 325.039062 613.503906 340.011719 603.863281 340.011719"/><path fill="#FFF" d="M 173.398438 301.667969 C 162.101562 301.460938 151.300781 298.875 140.753906 295.023438 C 131.789062 291.738281 135.636719 277.285156 144.734375 280.59375 C 154.039062 284.007812 163.421875 286.542969 173.398438 286.722656 C 183.011719 286.878906 183.039062 301.847656 173.398438 301.667969"/><path fill="#FFF" d="M 117.003906 286.699219 C 117.933594 287.007812 118.839844 287.316406 119.742188 287.601562 C 110.128906 287.371094 110.105469 272.398438 119.742188 272.65625 C 123 272.761719 125.25 273.875 127.574219 276.121094 C 134.5 282.871094 123.90625 293.417969 117.003906 286.699219"/><path fill="#A00707" d="M 532.507812 367.210938 C 524.984375 374.863281 518.914062 383.472656 513.226562 392.523438 C 508.109375 400.667969 495.1875 393.167969 500.328125 384.972656 C 506.660156 374.914062 513.5625 365.140625 521.9375 356.636719 C 528.679688 349.757812 539.25 360.332031 532.507812 367.210938"/><path fill="#A00707" d="M 510.796875 363.382812 C 505.679688 369.820312 501.183594 376.75 496.632812 383.578125 C 491.308594 391.566406 478.363281 384.09375 483.710938 376.027344 C 488.984375 368.117188 494.335938 360.253906 500.226562 352.808594 C 502.734375 349.601562 508.160156 350.171875 510.796875 352.808594 C 513.925781 355.9375 513.304688 360.179688 510.796875 363.382812"/><path fill="#A00707" d="M 489.0625 359.53125 C 484.566406 363.230469 480.480469 367.390625 478.234375 372.847656 C 476.65625 376.621094 473.324219 379.257812 469.03125 378.070312 C 465.464844 377.085938 462.234375 372.640625 463.8125 368.867188 C 467.09375 360.929688 471.824219 354.4375 478.515625 348.957031 C 481.644531 346.398438 485.984375 345.878906 489.0625 348.957031 C 491.75 351.621094 492.242188 356.945312 489.0625 359.53125"/><path fill="#A00707" d="M 525.863281 484.671875 C 513.121094 491.238281 501.570312 499.824219 488.828125 506.390625 C 480.273438 510.785156 472.726562 497.882812 481.28125 493.488281 C 494.023438 486.921875 505.578125 478.3125 518.34375 471.742188 C 526.898438 467.347656 534.445312 480.25 525.863281 484.671875"/><path fill="#A00707" d="M 501.621094 471.871094 C 491.179688 477.070312 480.53125 481.828125 470.945312 488.496094 C 463.011719 494.003906 455.542969 481.050781 463.398438 475.597656 C 472.988281 468.925781 483.660156 464.140625 494.074219 458.972656 C 502.65625 454.703125 510.226562 467.605469 501.621094 471.871094"/><path fill="#A00707" d="M 501.621094 447.59375 C 496.839844 450 492.035156 452.351562 487.5625 455.273438 C 479.449219 460.546875 471.980469 447.59375 480.015625 442.371094 C 484.488281 439.449219 489.292969 437.070312 494.074219 434.691406 C 502.65625 430.402344 510.226562 443.277344 501.621094 447.59375"/></svg>