<svg xmlns="http://www.w3.org/2000/svg" width="810" viewBox="0 0 810 810" height="810" version="1.0"><defs><clipPath id="a"><path d="M 280 62.277344 L 435 62.277344 L 435 113 L 280 113 Z M 280 62.277344"/></clipPath></defs><path fill="#F03F4A" d="M 271.410156 374.109375 C 271.410156 407.890625 244.027344 435.277344 210.246094 435.277344 C 176.464844 435.277344 149.109375 407.890625 149.109375 374.109375 C 149.109375 340.324219 176.464844 312.9375 210.246094 312.9375 C 244.027344 312.9375 271.410156 340.324219 271.410156 374.109375"/><path fill="#F03F4A" d="M 654.539062 374.109375 C 654.539062 407.890625 627.15625 435.277344 593.375 435.277344 C 559.597656 435.277344 532.210938 407.890625 532.210938 374.109375 C 532.210938 340.324219 559.597656 312.9375 593.375 312.9375 C 627.15625 312.9375 654.539062 340.324219 654.539062 374.109375"/><g clip-path="url(#a)"><path fill="#F03F4A" d="M 434.527344 112.207031 L 424.058594 76.648438 C 421.621094 68.011719 414.644531 62.167969 406.753906 62.167969 L 307.40625 62.167969 C 299.542969 62.167969 292.566406 68.011719 290.101562 76.648438 L 280.242188 112.207031 L 434.527344 112.207031"/></g><path fill="#99D420" d="M 535.8125 214.054688 C 549.488281 214.054688 562.449219 209.484375 572.996094 201.09375 L 567.984375 194.640625 C 537.25 155.429688 490.179688 132.503906 440.367188 132.503906 L 271.105469 132.503906 C 244.027344 132.503906 218 143.191406 198.699219 162.214844 L 146.203125 214.054688 L 535.8125 214.054688"/><path fill="#F9AA14" d="M 755.714844 328.445312 L 744.777344 287.046875 C 738.273438 262.402344 718.140625 243.738281 693.054688 239.113281 L 588.78125 218.816406 C 573.882812 231.054688 555.359375 237.730469 535.8125 237.730469 L 83.265625 237.730469 C 63.46875 240 48.101562 256.808594 48.101562 277.21875 L 48.101562 334.34375 C 48.101562 356.304688 65.90625 374.109375 87.863281 374.109375 L 125.4375 374.109375 C 125.4375 327.339844 163.480469 289.289062 210.273438 289.289062 C 257.039062 289.289062 295.085938 327.339844 295.085938 374.109375 L 508.539062 374.109375 C 508.539062 327.339844 546.609375 289.289062 593.375 289.289062 C 640.140625 289.289062 678.1875 327.339844 678.214844 374.109375 L 720.550781 374.109375 C 744.390625 374.109375 761.808594 351.511719 755.714844 328.445312"/><path fill="#F9AA14" d="M 612.675781 682.0625 L 572.082031 647.335938 L 572.054688 647.335938 C 584.929688 635.234375 593.210938 616.515625 593.210938 595.472656 C 593.210938 558.976562 568.429688 529.402344 537.832031 529.402344 C 507.238281 529.402344 482.425781 558.976562 482.425781 595.472656 C 482.425781 616.515625 490.734375 635.234375 503.609375 647.335938 L 503.527344 647.335938 L 462.214844 682.035156 C 450.335938 692.03125 443.46875 706.734375 443.46875 722.269531 L 443.46875 729.441406 L 445.601562 730.050781 C 505.851562 747.328125 569.757812 747.21875 629.953125 729.746094 L 631.0625 729.441406 L 631.0625 721.964844 C 631.0625 706.625 624.332031 692.03125 612.675781 682.0625"/><path fill="#F9AA14" d="M 343.207031 682.0625 L 302.617188 647.335938 L 302.5625 647.335938 C 315.4375 635.234375 323.742188 616.515625 323.742188 595.472656 C 323.742188 558.976562 298.933594 529.402344 268.335938 529.402344 C 237.742188 529.402344 212.960938 558.976562 212.960938 595.472656 C 212.960938 616.515625 221.238281 635.234375 234.113281 647.335938 L 234.058594 647.335938 L 192.71875 682.035156 C 180.839844 692.03125 173.972656 706.734375 173.972656 722.269531 L 173.972656 729.441406 L 176.105469 730.050781 C 236.355469 747.328125 300.289062 747.21875 360.484375 729.746094 L 361.566406 729.441406 L 361.566406 721.964844 C 361.566406 706.625 354.863281 692.03125 343.207031 682.0625"/><path fill="#F03F4A" d="M 489.074219 520.234375 L 402.515625 433.671875 L 315.960938 520.234375 L 299.210938 503.507812 L 402.515625 400.195312 L 505.824219 503.507812 L 489.074219 520.234375"/></svg>