<svg xmlns="http://www.w3.org/2000/svg" width="810" viewBox="0 0 810 810" height="810" version="1.0"><defs><clipPath id="a"><path d="M 59 185 L 752.128906 185 L 752.128906 557 L 59 557 Z M 59 185"/></clipPath></defs><g clip-path="url(#a)"><path fill="#5E94FF" d="M 467.828125 185.265625 C 498.457031 185.265625 526.925781 201.039062 543.15625 227.003906 L 599.554688 317.214844 L 697.0625 338.878906 C 730.320312 346.265625 753.976562 375.753906 753.976562 409.8125 L 753.976562 532.417969 C 753.976562 545.796875 743.132812 556.640625 729.75 556.640625 L 83.703125 556.640625 C 70.324219 556.640625 59.476562 545.796875 59.476562 532.417969 L 59.476562 370.953125 C 59.476562 367.871094 60.066406 364.816406 61.210938 361.957031 L 109.574219 241.089844 C 123.0625 207.371094 155.726562 185.265625 192.050781 185.265625 Z M 467.828125 185.265625"/></g><path fill="#CFD8DC" d="M 600.542969 443.613281 C 649.601562 443.613281 689.375 483.371094 689.375 532.417969 C 689.375 581.46875 649.601562 621.226562 600.542969 621.226562 C 551.480469 621.226562 511.710938 581.46875 511.710938 532.417969 C 511.710938 483.371094 551.480469 443.613281 600.542969 443.613281 Z M 600.542969 443.613281"/><path fill="#CFD8DC" d="M 212.914062 443.613281 C 261.976562 443.613281 301.746094 483.371094 301.746094 532.417969 C 301.746094 581.46875 261.976562 621.226562 212.914062 621.226562 C 163.855469 621.226562 124.082031 581.46875 124.082031 532.417969 C 124.082031 483.371094 163.855469 443.613281 212.914062 443.613281 Z M 212.914062 443.613281"/></svg>