<svg xmlns="http://www.w3.org/2000/svg" width="810" viewBox="0 0 810 810" height="810" version="1.0"><defs><clipPath id="a"><path d="M 39.175781 192.15625 L 770 192.15625 L 770 558 L 39.175781 558 Z M 39.175781 192.15625"/></clipPath><clipPath id="b"><path d="M 485 455 L 649 455 L 649 618.15625 L 485 618.15625 Z M 485 455"/></clipPath><clipPath id="c"><path d="M 141 455 L 304 455 L 304 618.15625 L 141 618.15625 Z M 141 455"/></clipPath></defs><g clip-path="url(#a)"><path fill="#DD2E44" d="M 506.214844 557.300781 L 100.601562 557.300781 C 100.601562 557.300781 39.761719 557.300781 39.761719 476.15625 C 39.761719 435.585938 39.761719 354.441406 60.039062 334.15625 C 80.320312 313.871094 222.285156 192.15625 283.128906 192.15625 L 404.8125 192.15625 C 465.65625 192.15625 607.621094 334.15625 607.621094 334.15625 L 688.742188 354.441406 C 688.742188 354.441406 749.585938 374.730469 749.585938 415.300781 L 749.585938 476.15625 C 749.585938 476.15625 769.867188 483.015625 769.867188 515.855469 C 769.867188 557.300781 729.304688 557.300781 729.304688 557.300781 Z M 506.214844 557.300781"/></g><path fill="#BBDDF5" d="M 364.25 232.730469 L 404.8125 232.730469 C 445.375 232.730469 567.058594 354.441406 567.058594 354.441406 C 567.058594 354.441406 465.714844 349.109375 364.25 343.914062 Z M 161.445312 293.585938 C 181.726562 273.300781 262.847656 232.730469 303.410156 232.730469 L 323.691406 232.730469 L 323.691406 341.84375 C 242.34375 337.707031 169.921875 334.15625 161.445312 334.15625 C 141.164062 334.15625 141.164062 313.871094 161.445312 293.585938 Z M 161.445312 293.585938"/><g clip-path="url(#b)"><path fill="#292F33" d="M 485.9375 537.015625 C 485.9375 538.34375 485.96875 539.667969 486.035156 540.996094 C 486.097656 542.324219 486.195312 543.644531 486.328125 544.96875 C 486.457031 546.289062 486.617188 547.605469 486.8125 548.921875 C 487.007812 550.234375 487.234375 551.542969 487.496094 552.84375 C 487.753906 554.148438 488.042969 555.441406 488.367188 556.730469 C 488.691406 558.019531 489.042969 559.296875 489.429688 560.570312 C 489.8125 561.839844 490.230469 563.101562 490.679688 564.351562 C 491.125 565.601562 491.601562 566.839844 492.109375 568.066406 C 492.617188 569.292969 493.15625 570.507812 493.722656 571.707031 C 494.292969 572.90625 494.890625 574.09375 495.515625 575.265625 C 496.140625 576.4375 496.792969 577.589844 497.476562 578.730469 C 498.160156 579.871094 498.871094 580.992188 499.609375 582.09375 C 500.34375 583.199219 501.109375 584.285156 501.898438 585.351562 C 502.691406 586.417969 503.507812 587.464844 504.351562 588.492188 C 505.191406 589.515625 506.058594 590.523438 506.949219 591.507812 C 507.84375 592.492188 508.757812 593.453125 509.695312 594.390625 C 510.636719 595.332031 511.597656 596.246094 512.578125 597.136719 C 513.5625 598.027344 514.570312 598.894531 515.59375 599.738281 C 516.621094 600.582031 517.667969 601.398438 518.734375 602.1875 C 519.800781 602.980469 520.886719 603.746094 521.988281 604.480469 C 523.09375 605.21875 524.214844 605.929688 525.351562 606.613281 C 526.492188 607.296875 527.648438 607.949219 528.816406 608.574219 C 529.988281 609.203125 531.175781 609.796875 532.375 610.367188 C 533.574219 610.933594 534.789062 611.472656 536.015625 611.980469 C 537.242188 612.488281 538.480469 612.964844 539.730469 613.414062 C 540.980469 613.859375 542.238281 614.277344 543.511719 614.664062 C 544.78125 615.046875 546.058594 615.402344 547.347656 615.726562 C 548.636719 616.046875 549.929688 616.339844 551.234375 616.597656 C 552.535156 616.855469 553.84375 617.085938 555.15625 617.277344 C 556.46875 617.472656 557.785156 617.636719 559.105469 617.765625 C 560.429688 617.898438 561.753906 617.996094 563.078125 618.058594 C 564.402344 618.125 565.730469 618.15625 567.058594 618.15625 C 568.386719 618.15625 569.714844 618.125 571.039062 618.058594 C 572.367188 617.996094 573.6875 617.898438 575.011719 617.765625 C 576.332031 617.636719 577.648438 617.472656 578.960938 617.277344 C 580.273438 617.085938 581.582031 616.855469 582.886719 616.597656 C 584.1875 616.339844 585.480469 616.046875 586.769531 615.726562 C 588.058594 615.402344 589.335938 615.046875 590.609375 614.664062 C 591.878906 614.277344 593.136719 613.859375 594.386719 613.414062 C 595.636719 612.964844 596.875 612.488281 598.101562 611.980469 C 599.328125 611.472656 600.542969 610.933594 601.742188 610.367188 C 602.945312 609.796875 604.128906 609.203125 605.300781 608.574219 C 606.46875 607.949219 607.625 607.296875 608.765625 606.613281 C 609.902344 605.929688 611.023438 605.21875 612.128906 604.480469 C 613.230469 603.746094 614.316406 602.980469 615.382812 602.1875 C 616.449219 601.398438 617.496094 600.582031 618.523438 599.738281 C 619.546875 598.894531 620.554688 598.027344 621.539062 597.136719 C 622.519531 596.246094 623.484375 595.332031 624.421875 594.390625 C 625.359375 593.453125 626.273438 592.492188 627.167969 591.507812 C 628.058594 590.523438 628.925781 589.515625 629.765625 588.492188 C 630.609375 587.464844 631.425781 586.417969 632.21875 585.351562 C 633.007812 584.285156 633.773438 583.199219 634.511719 582.09375 C 635.246094 580.992188 635.957031 579.871094 636.640625 578.730469 C 637.324219 577.589844 637.976562 576.4375 638.601562 575.265625 C 639.226562 574.09375 639.824219 572.90625 640.394531 571.707031 C 640.960938 570.507812 641.5 569.292969 642.007812 568.066406 C 642.515625 566.839844 642.992188 565.601562 643.4375 564.351562 C 643.886719 563.101562 644.304688 561.839844 644.6875 560.570312 C 645.074219 559.296875 645.429688 558.019531 645.75 556.730469 C 646.074219 555.441406 646.363281 554.148438 646.621094 552.84375 C 646.882812 551.542969 647.109375 550.234375 647.304688 548.921875 C 647.5 547.605469 647.660156 546.289062 647.789062 544.96875 C 647.921875 543.644531 648.019531 542.324219 648.082031 540.996094 C 648.148438 539.667969 648.179688 538.34375 648.179688 537.015625 C 648.179688 535.6875 648.148438 534.359375 648.082031 533.03125 C 648.019531 531.707031 647.921875 530.382812 647.789062 529.0625 C 647.660156 527.738281 647.5 526.421875 647.304688 525.109375 C 647.109375 523.792969 646.882812 522.488281 646.621094 521.183594 C 646.363281 519.882812 646.074219 518.585938 645.75 517.296875 C 645.429688 516.011719 645.074219 514.730469 644.6875 513.460938 C 644.304688 512.1875 643.886719 510.929688 643.4375 509.679688 C 642.992188 508.429688 642.515625 507.1875 642.007812 505.960938 C 641.5 504.734375 640.960938 503.523438 640.394531 502.320312 C 639.824219 501.121094 639.226562 499.933594 638.601562 498.765625 C 637.976562 497.59375 637.324219 496.4375 636.640625 495.296875 C 635.957031 494.160156 635.246094 493.039062 634.511719 491.933594 C 633.773438 490.828125 633.007812 489.746094 632.21875 488.675781 C 631.425781 487.609375 630.609375 486.5625 629.765625 485.539062 C 628.925781 484.511719 628.058594 483.507812 627.167969 482.523438 C 626.273438 481.539062 625.359375 480.578125 624.421875 479.636719 C 623.484375 478.699219 622.519531 477.785156 621.539062 476.890625 C 620.554688 476 619.546875 475.132812 618.523438 474.289062 C 617.496094 473.449219 616.449219 472.632812 615.382812 471.839844 C 614.316406 471.046875 613.230469 470.285156 612.128906 469.546875 C 611.023438 468.808594 609.902344 468.097656 608.765625 467.414062 C 607.625 466.734375 606.46875 466.078125 605.300781 465.453125 C 604.128906 464.828125 602.945312 464.230469 601.742188 463.660156 C 600.542969 463.09375 599.328125 462.554688 598.101562 462.046875 C 596.875 461.539062 595.636719 461.0625 594.386719 460.613281 C 593.136719 460.167969 591.878906 459.75 590.609375 459.367188 C 589.335938 458.980469 588.058594 458.625 586.769531 458.304688 C 585.480469 457.980469 584.1875 457.691406 582.886719 457.429688 C 581.582031 457.171875 580.273438 456.945312 578.960938 456.75 C 577.648438 456.554688 576.332031 456.390625 575.011719 456.261719 C 573.6875 456.132812 572.367188 456.035156 571.039062 455.96875 C 569.714844 455.902344 568.386719 455.871094 567.058594 455.871094 C 565.730469 455.871094 564.402344 455.902344 563.078125 455.96875 C 561.753906 456.035156 560.429688 456.132812 559.105469 456.261719 C 557.785156 456.390625 556.46875 456.554688 555.15625 456.75 C 553.84375 456.945312 552.535156 457.171875 551.234375 457.429688 C 549.929688 457.691406 548.636719 457.980469 547.347656 458.304688 C 546.058594 458.625 544.78125 458.980469 543.511719 459.367188 C 542.238281 459.75 540.980469 460.167969 539.730469 460.613281 C 538.480469 461.0625 537.242188 461.539062 536.015625 462.046875 C 534.789062 462.554688 533.574219 463.09375 532.375 463.660156 C 531.175781 464.230469 529.988281 464.828125 528.816406 465.453125 C 527.648438 466.078125 526.492188 466.734375 525.351562 467.414062 C 524.214844 468.097656 523.09375 468.808594 521.988281 469.546875 C 520.886719 470.285156 519.800781 471.046875 518.734375 471.839844 C 517.667969 472.632812 516.621094 473.449219 515.59375 474.289062 C 514.570312 475.132812 513.5625 476 512.578125 476.890625 C 511.597656 477.785156 510.636719 478.699219 509.695312 479.636719 C 508.757812 480.578125 507.84375 481.539062 506.949219 482.523438 C 506.058594 483.507812 505.191406 484.511719 504.351562 485.539062 C 503.507812 486.5625 502.691406 487.609375 501.898438 488.675781 C 501.109375 489.746094 500.34375 490.828125 499.609375 491.933594 C 498.871094 493.039062 498.160156 494.160156 497.476562 495.296875 C 496.792969 496.4375 496.140625 497.59375 495.515625 498.765625 C 494.890625 499.933594 494.292969 501.121094 493.722656 502.320312 C 493.15625 503.523438 492.617188 504.734375 492.109375 505.960938 C 491.601562 507.1875 491.125 508.429688 490.679688 509.679688 C 490.230469 510.929688 489.8125 512.1875 489.429688 513.460938 C 489.042969 514.730469 488.691406 516.011719 488.367188 517.296875 C 488.042969 518.585938 487.753906 519.882812 487.496094 521.183594 C 487.234375 522.488281 487.007812 523.792969 486.8125 525.109375 C 486.617188 526.421875 486.457031 527.738281 486.328125 529.0625 C 486.195312 530.382812 486.097656 531.707031 486.035156 533.03125 C 485.96875 534.359375 485.9375 535.6875 485.9375 537.015625 Z M 485.9375 537.015625"/></g><path fill="#CCD6DD" d="M 526.496094 537.015625 C 526.496094 538.34375 526.5625 539.667969 526.691406 540.992188 C 526.824219 542.3125 527.015625 543.625 527.277344 544.929688 C 527.535156 546.234375 527.859375 547.519531 528.242188 548.792969 C 528.628906 550.0625 529.078125 551.3125 529.585938 552.539062 C 530.09375 553.769531 530.660156 554.96875 531.285156 556.140625 C 531.914062 557.3125 532.59375 558.449219 533.332031 559.554688 C 534.070312 560.660156 534.863281 561.726562 535.703125 562.753906 C 536.546875 563.78125 537.4375 564.761719 538.378906 565.703125 C 539.316406 566.640625 540.300781 567.535156 541.328125 568.375 C 542.355469 569.21875 543.417969 570.011719 544.523438 570.75 C 545.628906 571.488281 546.765625 572.167969 547.9375 572.796875 C 549.109375 573.421875 550.308594 573.988281 551.535156 574.496094 C 552.765625 575.007812 554.011719 575.453125 555.285156 575.839844 C 556.554688 576.222656 557.84375 576.546875 559.144531 576.804688 C 560.449219 577.066406 561.761719 577.261719 563.082031 577.390625 C 564.40625 577.519531 565.730469 577.585938 567.058594 577.585938 C 568.386719 577.585938 569.710938 577.519531 571.035156 577.390625 C 572.355469 577.261719 573.667969 577.066406 574.972656 576.804688 C 576.273438 576.546875 577.5625 576.222656 578.832031 575.839844 C 580.105469 575.453125 581.355469 575.007812 582.582031 574.496094 C 583.808594 573.988281 585.007812 573.421875 586.179688 572.796875 C 587.351562 572.167969 588.488281 571.488281 589.59375 570.75 C 590.699219 570.011719 591.765625 569.21875 592.789062 568.375 C 593.816406 567.535156 594.800781 566.640625 595.738281 565.703125 C 596.679688 564.761719 597.570312 563.78125 598.414062 562.753906 C 599.257812 561.726562 600.046875 560.660156 600.785156 559.554688 C 601.523438 558.449219 602.203125 557.3125 602.832031 556.140625 C 603.457031 554.96875 604.023438 553.769531 604.53125 552.539062 C 605.039062 551.3125 605.488281 550.0625 605.875 548.792969 C 606.257812 547.519531 606.582031 546.234375 606.839844 544.929688 C 607.101562 543.625 607.292969 542.3125 607.425781 540.992188 C 607.554688 539.667969 607.621094 538.34375 607.621094 537.015625 C 607.621094 535.6875 607.554688 534.359375 607.425781 533.039062 C 607.292969 531.714844 607.101562 530.402344 606.839844 529.097656 C 606.582031 527.796875 606.257812 526.507812 605.875 525.238281 C 605.488281 523.964844 605.039062 522.714844 604.53125 521.488281 C 604.023438 520.261719 603.457031 519.0625 602.832031 517.890625 C 602.203125 516.71875 601.523438 515.578125 600.785156 514.472656 C 600.046875 513.371094 599.257812 512.304688 598.414062 511.277344 C 597.570312 510.25 596.679688 509.265625 595.738281 508.324219 C 594.800781 507.386719 593.816406 506.496094 592.789062 505.652344 C 591.765625 504.808594 590.699219 504.019531 589.59375 503.28125 C 588.488281 502.542969 587.351562 501.859375 586.179688 501.234375 C 585.007812 500.605469 583.808594 500.039062 582.582031 499.53125 C 581.355469 499.023438 580.105469 498.574219 578.832031 498.191406 C 577.5625 497.804688 576.273438 497.480469 574.972656 497.222656 C 573.667969 496.964844 572.355469 496.769531 571.035156 496.636719 C 569.710938 496.507812 568.386719 496.441406 567.058594 496.441406 C 565.730469 496.441406 564.40625 496.507812 563.082031 496.636719 C 561.761719 496.769531 560.449219 496.964844 559.144531 497.222656 C 557.84375 497.480469 556.554688 497.804688 555.285156 498.191406 C 554.011719 498.574219 552.765625 499.023438 551.535156 499.53125 C 550.308594 500.039062 549.109375 500.605469 547.9375 501.234375 C 546.765625 501.859375 545.628906 502.542969 544.523438 503.28125 C 543.417969 504.019531 542.355469 504.808594 541.328125 505.652344 C 540.300781 506.496094 539.316406 507.386719 538.378906 508.324219 C 537.4375 509.265625 536.546875 510.25 535.703125 511.277344 C 534.863281 512.304688 534.070312 513.371094 533.332031 514.472656 C 532.59375 515.578125 531.914062 516.71875 531.285156 517.890625 C 530.660156 519.0625 530.09375 520.261719 529.585938 521.488281 C 529.078125 522.714844 528.628906 523.964844 528.242188 525.238281 C 527.859375 526.507812 527.535156 527.796875 527.277344 529.097656 C 527.015625 530.402344 526.824219 531.714844 526.691406 533.039062 C 526.5625 534.359375 526.496094 535.6875 526.496094 537.015625 Z M 526.496094 537.015625"/><g clip-path="url(#c)"><path fill="#292F33" d="M 141.164062 537.015625 C 141.164062 538.34375 141.195312 539.667969 141.261719 540.996094 C 141.328125 542.324219 141.425781 543.644531 141.554688 544.96875 C 141.683594 546.289062 141.847656 547.605469 142.042969 548.921875 C 142.238281 550.234375 142.464844 551.542969 142.722656 552.84375 C 142.980469 554.148438 143.273438 555.441406 143.59375 556.730469 C 143.917969 558.019531 144.269531 559.296875 144.65625 560.570312 C 145.042969 561.839844 145.457031 563.101562 145.90625 564.351562 C 146.351562 565.601562 146.832031 566.839844 147.339844 568.066406 C 147.847656 569.292969 148.386719 570.507812 148.953125 571.707031 C 149.519531 572.90625 150.117188 574.09375 150.742188 575.265625 C 151.367188 576.4375 152.023438 577.589844 152.707031 578.730469 C 153.386719 579.871094 154.097656 580.992188 154.835938 582.09375 C 155.574219 583.199219 156.335938 584.285156 157.128906 585.351562 C 157.917969 586.417969 158.734375 587.464844 159.578125 588.492188 C 160.421875 589.515625 161.285156 590.523438 162.179688 591.507812 C 163.070312 592.492188 163.984375 593.453125 164.925781 594.390625 C 165.863281 595.332031 166.824219 596.246094 167.808594 597.136719 C 168.792969 598.027344 169.796875 598.894531 170.824219 599.738281 C 171.847656 600.582031 172.894531 601.398438 173.960938 602.1875 C 175.027344 602.980469 176.113281 603.746094 177.21875 604.480469 C 178.320312 605.21875 179.441406 605.929688 180.582031 606.613281 C 181.71875 607.296875 182.875 607.949219 184.046875 608.574219 C 185.214844 609.203125 186.402344 609.796875 187.601562 610.367188 C 188.800781 610.933594 190.015625 611.472656 191.242188 611.980469 C 192.46875 612.488281 193.707031 612.964844 194.957031 613.414062 C 196.207031 613.859375 197.46875 614.277344 198.738281 614.664062 C 200.007812 615.046875 201.289062 615.402344 202.574219 615.726562 C 203.863281 616.046875 205.160156 616.339844 206.460938 616.597656 C 207.761719 616.855469 209.070312 617.085938 210.382812 617.277344 C 211.695312 617.472656 213.015625 617.636719 214.335938 617.765625 C 215.65625 617.898438 216.980469 617.996094 218.304688 618.058594 C 219.632812 618.125 220.960938 618.15625 222.285156 618.15625 C 223.613281 618.15625 224.941406 618.125 226.265625 618.058594 C 227.59375 617.996094 228.917969 617.898438 230.238281 617.765625 C 231.558594 617.636719 232.875 617.472656 234.191406 617.277344 C 235.503906 617.085938 236.8125 616.855469 238.113281 616.597656 C 239.414062 616.339844 240.710938 616.046875 241.996094 615.726562 C 243.285156 615.402344 244.566406 615.046875 245.835938 614.664062 C 247.105469 614.277344 248.367188 613.859375 249.617188 613.414062 C 250.867188 612.964844 252.105469 612.488281 253.332031 611.980469 C 254.558594 611.472656 255.769531 610.933594 256.972656 610.367188 C 258.171875 609.796875 259.355469 609.203125 260.527344 608.574219 C 261.699219 607.949219 262.851562 607.296875 263.992188 606.613281 C 265.132812 605.929688 266.253906 605.21875 267.355469 604.480469 C 268.460938 603.746094 269.546875 602.980469 270.613281 602.1875 C 271.679688 601.398438 272.722656 600.582031 273.75 599.738281 C 274.777344 598.894531 275.78125 598.027344 276.765625 597.136719 C 277.75 596.246094 278.710938 595.332031 279.648438 594.390625 C 280.589844 593.453125 281.503906 592.492188 282.394531 591.507812 C 283.285156 590.523438 284.152344 589.515625 284.996094 588.492188 C 285.835938 587.464844 286.652344 586.417969 287.445312 585.351562 C 288.234375 584.285156 289 583.199219 289.738281 582.09375 C 290.476562 580.992188 291.183594 579.871094 291.867188 578.730469 C 292.550781 577.589844 293.203125 576.4375 293.832031 575.265625 C 294.457031 574.09375 295.054688 572.90625 295.621094 571.707031 C 296.1875 570.507812 296.726562 569.292969 297.234375 568.066406 C 297.742188 566.839844 298.21875 565.601562 298.667969 564.351562 C 299.113281 563.101562 299.53125 561.839844 299.917969 560.570312 C 300.300781 559.296875 300.65625 558.019531 300.976562 556.730469 C 301.300781 555.441406 301.589844 554.148438 301.851562 552.84375 C 302.109375 551.542969 302.335938 550.234375 302.53125 548.921875 C 302.726562 547.605469 302.890625 546.289062 303.019531 544.96875 C 303.148438 543.644531 303.246094 542.324219 303.3125 540.996094 C 303.375 539.667969 303.410156 538.34375 303.410156 537.015625 C 303.410156 535.6875 303.375 534.359375 303.3125 533.03125 C 303.246094 531.707031 303.148438 530.382812 303.019531 529.0625 C 302.890625 527.738281 302.726562 526.421875 302.53125 525.109375 C 302.335938 523.792969 302.109375 522.488281 301.851562 521.183594 C 301.589844 519.882812 301.300781 518.585938 300.976562 517.296875 C 300.65625 516.011719 300.300781 514.730469 299.917969 513.460938 C 299.53125 512.1875 299.113281 510.929688 298.667969 509.679688 C 298.21875 508.429688 297.742188 507.1875 297.234375 505.960938 C 296.726562 504.734375 296.1875 503.523438 295.621094 502.320312 C 295.054688 501.121094 294.457031 499.933594 293.832031 498.765625 C 293.203125 497.59375 292.550781 496.4375 291.867188 495.296875 C 291.183594 494.160156 290.476562 493.039062 289.738281 491.933594 C 289 490.828125 288.234375 489.746094 287.445312 488.675781 C 286.652344 487.609375 285.835938 486.5625 284.996094 485.539062 C 284.152344 484.511719 283.285156 483.507812 282.394531 482.523438 C 281.503906 481.539062 280.589844 480.578125 279.648438 479.636719 C 278.710938 478.699219 277.75 477.785156 276.765625 476.890625 C 275.78125 476 274.777344 475.132812 273.75 474.289062 C 272.722656 473.449219 271.679688 472.632812 270.613281 471.839844 C 269.546875 471.046875 268.460938 470.285156 267.355469 469.546875 C 266.253906 468.808594 265.132812 468.097656 263.992188 467.414062 C 262.851562 466.734375 261.699219 466.078125 260.527344 465.453125 C 259.355469 464.828125 258.171875 464.230469 256.972656 463.660156 C 255.769531 463.09375 254.558594 462.554688 253.332031 462.046875 C 252.105469 461.539062 250.867188 461.0625 249.617188 460.613281 C 248.367188 460.167969 247.105469 459.75 245.835938 459.367188 C 244.566406 458.980469 243.285156 458.625 241.996094 458.304688 C 240.710938 457.980469 239.414062 457.691406 238.113281 457.429688 C 236.8125 457.171875 235.503906 456.945312 234.191406 456.75 C 232.875 456.554688 231.558594 456.390625 230.238281 456.261719 C 228.917969 456.132812 227.59375 456.035156 226.265625 455.96875 C 224.941406 455.902344 223.613281 455.871094 222.285156 455.871094 C 220.960938 455.871094 219.632812 455.902344 218.304688 455.96875 C 216.980469 456.035156 215.65625 456.132812 214.335938 456.261719 C 213.015625 456.390625 211.695312 456.554688 210.382812 456.75 C 209.070312 456.945312 207.761719 457.171875 206.460938 457.429688 C 205.160156 457.691406 203.863281 457.980469 202.574219 458.304688 C 201.289062 458.625 200.007812 458.980469 198.738281 459.367188 C 197.46875 459.75 196.207031 460.167969 194.957031 460.613281 C 193.707031 461.0625 192.46875 461.539062 191.242188 462.046875 C 190.015625 462.554688 188.800781 463.09375 187.601562 463.660156 C 186.402344 464.230469 185.214844 464.828125 184.046875 465.453125 C 182.875 466.078125 181.71875 466.734375 180.582031 467.414062 C 179.441406 468.097656 178.320312 468.808594 177.21875 469.546875 C 176.113281 470.285156 175.027344 471.046875 173.960938 471.839844 C 172.894531 472.632812 171.847656 473.449219 170.824219 474.289062 C 169.796875 475.132812 168.792969 476 167.808594 476.890625 C 166.824219 477.785156 165.863281 478.699219 164.925781 479.636719 C 163.984375 480.578125 163.070312 481.539062 162.179688 482.523438 C 161.285156 483.507812 160.421875 484.511719 159.578125 485.539062 C 158.734375 486.5625 157.917969 487.609375 157.128906 488.675781 C 156.335938 489.746094 155.574219 490.828125 154.835938 491.933594 C 154.097656 493.039062 153.386719 494.160156 152.707031 495.296875 C 152.023438 496.4375 151.367188 497.59375 150.742188 498.765625 C 150.117188 499.933594 149.519531 501.121094 148.953125 502.320312 C 148.386719 503.523438 147.847656 504.734375 147.339844 505.960938 C 146.832031 507.1875 146.351562 508.429688 145.90625 509.679688 C 145.457031 510.929688 145.042969 512.1875 144.65625 513.460938 C 144.273438 514.730469 143.917969 516.011719 143.59375 517.296875 C 143.273438 518.585938 142.980469 519.882812 142.722656 521.183594 C 142.464844 522.488281 142.238281 523.792969 142.042969 525.109375 C 141.847656 526.421875 141.683594 527.738281 141.554688 529.0625 C 141.425781 530.382812 141.328125 531.707031 141.261719 533.03125 C 141.195312 534.359375 141.164062 535.6875 141.164062 537.015625 Z M 141.164062 537.015625"/></g><path fill="#CCD6DD" d="M 181.726562 537.015625 C 181.726562 538.34375 181.789062 539.667969 181.921875 540.992188 C 182.050781 542.3125 182.246094 543.625 182.503906 544.929688 C 182.765625 546.234375 183.085938 547.519531 183.472656 548.792969 C 183.855469 550.0625 184.304688 551.3125 184.8125 552.539062 C 185.320312 553.769531 185.886719 554.96875 186.515625 556.140625 C 187.140625 557.3125 187.824219 558.449219 188.5625 559.554688 C 189.300781 560.660156 190.089844 561.726562 190.933594 562.753906 C 191.773438 563.78125 192.667969 564.761719 193.605469 565.703125 C 194.542969 566.640625 195.527344 567.535156 196.554688 568.375 C 197.582031 569.21875 198.648438 570.011719 199.753906 570.75 C 200.855469 571.488281 201.996094 572.167969 203.167969 572.796875 C 204.335938 573.421875 205.539062 573.988281 206.765625 574.496094 C 207.992188 575.007812 209.242188 575.453125 210.511719 575.839844 C 211.785156 576.222656 213.070312 576.546875 214.375 576.804688 C 215.675781 577.066406 216.988281 577.261719 218.3125 577.390625 C 219.632812 577.519531 220.957031 577.585938 222.285156 577.585938 C 223.613281 577.585938 224.941406 577.519531 226.261719 577.390625 C 227.585938 577.261719 228.898438 577.066406 230.199219 576.804688 C 231.503906 576.546875 232.789062 576.222656 234.0625 575.839844 C 235.332031 575.453125 236.582031 575.007812 237.808594 574.496094 C 239.035156 573.988281 240.234375 573.421875 241.40625 572.796875 C 242.578125 572.167969 243.71875 571.488281 244.820312 570.75 C 245.925781 570.011719 246.992188 569.21875 248.019531 568.375 C 249.046875 567.535156 250.027344 566.640625 250.96875 565.703125 C 251.90625 564.761719 252.796875 563.78125 253.640625 562.753906 C 254.484375 561.726562 255.273438 560.660156 256.011719 559.554688 C 256.75 558.449219 257.433594 557.3125 258.058594 556.140625 C 258.683594 554.96875 259.253906 553.769531 259.761719 552.539062 C 260.269531 551.3125 260.714844 550.0625 261.101562 548.792969 C 261.488281 547.519531 261.808594 546.234375 262.070312 544.929688 C 262.328125 543.625 262.523438 542.3125 262.652344 540.992188 C 262.78125 539.667969 262.847656 538.34375 262.847656 537.015625 C 262.847656 535.6875 262.78125 534.359375 262.652344 533.039062 C 262.523438 531.714844 262.328125 530.402344 262.070312 529.097656 C 261.808594 527.796875 261.488281 526.507812 261.101562 525.238281 C 260.714844 523.964844 260.269531 522.714844 259.761719 521.488281 C 259.253906 520.261719 258.683594 519.0625 258.058594 517.890625 C 257.433594 516.71875 256.75 515.578125 256.011719 514.472656 C 255.273438 513.371094 254.484375 512.304688 253.640625 511.277344 C 252.796875 510.25 251.90625 509.265625 250.96875 508.324219 C 250.027344 507.386719 249.046875 506.496094 248.019531 505.652344 C 246.992188 504.808594 245.925781 504.019531 244.820312 503.28125 C 243.71875 502.542969 242.578125 501.859375 241.40625 501.234375 C 240.234375 500.605469 239.035156 500.039062 237.808594 499.53125 C 236.582031 499.023438 235.332031 498.574219 234.0625 498.191406 C 232.789062 497.804688 231.503906 497.480469 230.199219 497.222656 C 228.898438 496.964844 227.585938 496.769531 226.261719 496.636719 C 224.941406 496.507812 223.613281 496.441406 222.285156 496.441406 C 220.957031 496.441406 219.632812 496.507812 218.3125 496.636719 C 216.988281 496.769531 215.675781 496.964844 214.375 497.222656 C 213.070312 497.480469 211.785156 497.804688 210.511719 498.191406 C 209.242188 498.574219 207.992188 499.023438 206.765625 499.53125 C 205.539062 500.039062 204.335938 500.605469 203.167969 501.234375 C 201.996094 501.859375 200.855469 502.542969 199.753906 503.28125 C 198.648438 504.019531 197.582031 504.808594 196.554688 505.652344 C 195.527344 506.496094 194.542969 507.386719 193.605469 508.324219 C 192.667969 509.265625 191.773438 510.25 190.933594 511.277344 C 190.089844 512.304688 189.300781 513.371094 188.5625 514.472656 C 187.824219 515.578125 187.140625 516.71875 186.515625 517.890625 C 185.886719 519.0625 185.320312 520.261719 184.8125 521.488281 C 184.304688 522.714844 183.855469 523.964844 183.472656 525.238281 C 183.085938 526.507812 182.765625 527.796875 182.503906 529.097656 C 182.246094 530.402344 182.050781 531.714844 181.921875 533.039062 C 181.789062 534.359375 181.726562 535.6875 181.726562 537.015625 Z M 181.726562 537.015625"/></svg>