<svg xmlns="http://www.w3.org/2000/svg" width="810" viewBox="0 0 810 810" height="810" version="1.0"><defs><clipPath id="a"><path d="M 538 457 L 678 457 L 678 595.953125 L 538 595.953125 Z M 538 457"/></clipPath><clipPath id="b"><path d="M 71 457 L 211 457 L 211 595.953125 L 71 595.953125 Z M 71 457"/></clipPath></defs><path fill="#3A8FB9" d="M 43.125 392.804688 C 55.1875 370.75 83.773438 371.25 102.027344 357.582031 C 119.3125 344.660156 137.570312 325.386719 147.480469 304.578125 C 169.09375 259.308594 204.417969 230.820312 248.347656 222.832031 C 292.316406 214.875 421.289062 214.207031 456.675781 227.585938 C 474.433594 234.3125 486.453125 252.179688 507.539062 270.617188 C 539.828125 298.851562 549.96875 324.632812 612.914062 342.855469 C 671.867188 359.9375 706.457031 369.5625 737.261719 397.601562 C 768.023438 425.660156 779.136719 479.71875 779.136719 516.363281 L 24.808594 516.363281 C 25.757812 511.992188 24.808594 426.304688 43.125 392.804688"/><path fill="#E9E9E9" d="M 765.726562 473.304688 C 764.035156 461.492188 753.671875 430.558594 726.046875 424.449219 C 698.417969 418.339844 687.082031 420.382812 678.570312 416.324219 C 670.0625 412.242188 679.28125 465.152344 716.828125 473.304688 C 754.382812 481.429688 767.820312 488.011719 765.726562 473.304688"/><path fill="#FABB18" d="M 678.570312 416.324219 C 683.476562 418.65625 689.363281 418.984375 698.75 420.011719 C 702.851562 437.710938 707.550781 453.988281 720.292969 466.578125 C 724.242188 470.472656 728.332031 473.847656 732.5625 476.886719 C 727.851562 475.777344 722.664062 474.566406 716.828125 473.304688 C 679.28125 465.152344 670.0625 412.242188 678.570312 416.324219"/><path fill="#E9E9E9" d="M 38.761719 403.300781 C 47.953125 403.851562 60.109375 406.292969 62.210938 415.445312 C 65.03125 427.753906 64.007812 458.859375 60.261719 469.855469 C 57.230469 478.71875 41.929688 484.046875 26.324219 481.574219 C 26.664062 459.757812 28.773438 422.789062 38.761719 403.300781"/><path fill="#ED1C24" d="M 58.789062 456.699219 C 48.988281 456.289062 37.203125 455.367188 27.519531 455.503906 C 28.707031 432.667969 33.058594 416.585938 36.949219 407.226562 C 53.289062 407.75 62.675781 430.035156 58.789062 456.699219"/><path fill="#F47126" d="M 57.289062 468.078125 C 57.171875 468.527344 57.027344 469 56.882812 469.40625 C 54.148438 477.058594 40.4375 481.625 26.375 479.53125 C 26.425781 475.9375 26.570312 471.710938 26.78125 467.390625 C 36.832031 466.890625 47.183594 467.550781 57.289062 468.078125"/><path fill="#1C4259" d="M 466.773438 355.988281 C 400.535156 353.644531 299.855469 354.972656 216.441406 356.09375 C 181.070312 356.566406 152.503906 349.457031 157.199219 331.664062 C 160.941406 317.285156 166.769531 305.671875 173.9375 293.027344 C 188.949219 266.601562 217.984375 240.566406 246.710938 236.90625 C 307.945312 229.136719 376.8125 230.890625 419.636719 235.523438 C 448.261719 238.632812 469.410156 256.003906 499.417969 283.878906 C 517.273438 300.441406 545.054688 322.226562 548.230469 335.679688 C 550.867188 346.753906 532.972656 358.34375 466.773438 355.988281"/><path fill="#8FDAE2" d="M 459.097656 346.085938 C 397.230469 343.898438 303.21875 345.160156 225.277344 346.179688 C 192.261719 346.636719 193.066406 337.578125 209.339844 292.335938 C 226.726562 243.886719 226.726562 243.886719 253.574219 240.464844 C 310.75 233.21875 375.085938 234.855469 415.0625 239.210938 C 441.792969 242.082031 457.710938 258.382812 485.75 284.402344 C 502.40625 299.867188 520.367188 314.339844 523.367188 326.886719 C 525.816406 337.25 520.941406 348.296875 459.097656 346.085938"/><path fill="#1C4259" d="M 335.691406 346.375 L 378.285156 347.847656 L 352.175781 233.40625 L 335.691406 233.40625 L 335.691406 346.375"/><path fill="#1C4259" d="M 188.5 491.121094 C 215.230469 490.960938 628.113281 488.226562 658.6875 488.582031 C 750.199219 489.605469 772.699219 484.921875 783.46875 495.96875 C 789.601562 502.246094 796.066406 526.503906 778.214844 526.53125 L 24.808594 526.53125 C 20.554688 526.53125 16.210938 522.445312 15.871094 517.429688 C 14.050781 490.265625 22.429688 487.75 42.742188 488.886719 C 54.09375 489.53125 72.554688 491.835938 188.5 491.121094"/><path fill="#FFF" d="M 441.621094 247.835938 L 426.761719 345.28125 C 421.027344 345.179688 415.128906 345.109375 409.097656 345.058594 L 424.992188 241.015625 C 430.894531 242.53125 436.335938 244.835938 441.621094 247.835938"/><path fill="#FFF" d="M 415.0625 239.210938 C 415.925781 239.277344 416.730469 239.421875 417.542969 239.539062 L 401.421875 344.992188 C 398.5 344.96875 395.570312 344.941406 392.59375 344.941406 L 408.835938 238.566406 C 410.980469 238.777344 413.0625 238.972656 415.0625 239.210938"/><path fill="#FFF" d="M 302.710938 236.355469 L 286.0625 345.417969 C 280.113281 345.492188 274.226562 345.558594 268.339844 345.636719 L 284.875 237.40625 C 290.804688 236.972656 296.769531 236.640625 302.710938 236.355469"/><path fill="#FFF" d="M 268.117188 238.855469 C 271.109375 238.566406 274.082031 238.277344 277.109375 238.015625 L 260.628906 345.730469 C 257.671875 345.753906 254.726562 345.796875 251.769531 345.824219 L 268.117188 238.855469"/><path fill="#0E1F2B" d="M 520.484375 526.503906 L 696.300781 526.503906 C 696.300781 477.964844 656.949219 438.589844 608.398438 438.589844 C 559.855469 438.589844 520.484375 477.964844 520.484375 526.503906"/><g clip-path="url(#a)"><path fill="#2E2A2B" d="M 538.921875 526.503906 C 538.921875 564.878906 570.019531 596.007812 608.398438 596.007812 C 646.757812 596.007812 677.867188 564.878906 677.867188 526.503906 C 677.867188 488.132812 646.757812 457.027344 608.398438 457.027344 C 570.019531 457.027344 538.921875 488.132812 538.921875 526.503906"/></g><path fill="#656263" d="M 559.253906 526.503906 C 559.253906 553.667969 581.253906 575.664062 608.398438 575.664062 C 635.523438 575.664062 657.515625 553.667969 657.515625 526.503906 C 657.515625 499.367188 635.523438 477.371094 608.398438 477.371094 C 581.253906 477.371094 559.253906 499.367188 559.253906 526.503906"/><path fill="#BDBCBC" d="M 565.503906 526.503906 L 565.117188 526.503906 C 565.117188 550.414062 584.492188 569.792969 608.398438 569.792969 C 632.296875 569.792969 651.671875 550.414062 651.671875 526.503906 C 651.671875 502.59375 632.296875 483.242188 608.398438 483.242188 C 584.492188 483.242188 565.117188 502.59375 565.117188 526.503906 L 565.902344 526.503906 C 565.902344 514.769531 570.65625 504.152344 578.347656 496.46875 C 586.03125 488.785156 596.65625 484.03125 608.398438 484.03125 C 620.132812 484.03125 630.746094 488.785156 638.4375 496.46875 C 646.132812 504.152344 650.882812 514.769531 650.882812 526.503906 C 650.882812 538.25 646.132812 548.863281 638.4375 556.558594 C 630.746094 564.242188 620.132812 569.003906 608.398438 569.003906 C 596.65625 569.003906 586.03125 564.242188 578.347656 556.558594 C 570.65625 548.863281 565.902344 538.25 565.902344 526.503906 L 565.503906 526.503906"/><path fill="#BDBCBC" d="M 604.46875 569.394531 L 612.304688 569.394531 L 612.304688 483.640625 L 604.46875 483.640625 L 604.46875 569.394531"/><path fill="#BDBCBC" d="M 565.503906 522.582031 L 565.503906 530.453125 L 651.273438 530.453125 L 651.273438 522.582031 L 565.503906 522.582031"/><path fill="#BDBCBC" d="M 575.289062 554.066406 L 580.855469 559.625 L 641.488281 498.96875 L 635.957031 493.410156 L 575.289062 554.066406"/><path fill="#BDBCBC" d="M 580.855469 493.410156 L 575.289062 498.96875 L 635.957031 559.625 L 641.488281 554.066406 L 580.855469 493.410156"/><path fill="#BDBCBC" d="M 591.183594 526.503906 C 591.183594 536.035156 598.890625 543.730469 608.398438 543.730469 C 617.902344 543.730469 625.613281 536.035156 625.613281 526.503906 C 625.613281 517 617.902344 509.304688 608.398438 509.304688 C 598.890625 509.304688 591.183594 517 591.183594 526.503906"/><path fill="#2E2A2B" d="M 606.78125 520.304688 C 607.777344 521.300781 609.398438 521.300781 610.386719 520.304688 C 611.386719 519.304688 611.386719 517.691406 610.386719 516.695312 C 609.398438 515.71875 607.777344 515.71875 606.78125 516.695312 C 605.796875 517.691406 605.796875 519.304688 606.78125 520.304688"/><path fill="#2E2A2B" d="M 598.578125 528.503906 C 599.570312 529.496094 601.1875 529.496094 602.1875 528.503906 C 603.1875 527.53125 603.1875 525.910156 602.1875 524.914062 C 601.1875 523.914062 599.570312 523.914062 598.578125 524.914062 C 597.578125 525.910156 597.578125 527.53125 598.578125 528.503906"/><path fill="#2E2A2B" d="M 614.589844 528.125 C 615.582031 529.125 617.199219 529.125 618.199219 528.125 C 619.199219 527.125 619.199219 525.503906 618.199219 524.515625 C 617.199219 523.539062 615.582031 523.539062 614.589844 524.515625 C 613.589844 525.503906 613.589844 527.125 614.589844 528.125"/><path fill="#2E2A2B" d="M 606.398438 536.316406 C 607.398438 537.316406 609.015625 537.316406 610.007812 536.316406 C 611.007812 535.324219 611.007812 533.707031 610.007812 532.734375 C 609.015625 531.734375 607.398438 531.734375 606.398438 532.734375 C 605.398438 533.707031 605.398438 535.324219 606.398438 536.316406"/><path fill="#0E1F2B" d="M 53.148438 526.503906 L 228.988281 526.503906 C 228.988281 477.964844 189.628906 438.589844 141.085938 438.589844 C 92.523438 438.589844 53.148438 477.964844 53.148438 526.503906"/><g clip-path="url(#b)"><path fill="#2E2A2B" d="M 71.582031 526.503906 C 71.582031 564.878906 102.714844 596.007812 141.085938 596.007812 C 179.445312 596.007812 210.542969 564.878906 210.542969 526.503906 C 210.542969 488.132812 179.445312 457.027344 141.085938 457.027344 C 102.714844 457.027344 71.582031 488.132812 71.582031 526.503906"/></g><path fill="#656263" d="M 91.921875 526.503906 C 91.921875 553.667969 113.921875 575.664062 141.085938 575.664062 C 168.21875 575.664062 190.210938 553.667969 190.210938 526.503906 C 190.210938 499.367188 168.21875 477.371094 141.085938 477.371094 C 113.921875 477.371094 91.921875 499.367188 91.921875 526.503906"/><path fill="#BDBCBC" d="M 98.191406 526.503906 L 97.800781 526.503906 C 97.800781 550.414062 117.175781 569.792969 141.085938 569.792969 C 164.964844 569.792969 184.359375 550.414062 184.359375 526.503906 C 184.359375 502.59375 164.964844 483.242188 141.085938 483.242188 C 117.175781 483.242188 97.800781 502.59375 97.800781 526.503906 L 98.589844 526.503906 C 98.589844 514.769531 103.34375 504.152344 111.035156 496.46875 C 118.726562 488.785156 129.34375 484.03125 141.085938 484.03125 C 152.808594 484.03125 163.425781 488.785156 171.117188 496.46875 C 178.808594 504.152344 183.570312 514.769531 183.570312 526.503906 C 183.570312 538.25 178.808594 548.863281 171.117188 556.558594 C 163.425781 564.242188 152.808594 569.003906 141.085938 569.003906 C 129.34375 569.003906 118.726562 564.242188 111.035156 556.558594 C 103.34375 548.863281 98.589844 538.25 98.589844 526.503906 L 98.191406 526.503906"/><path fill="#BDBCBC" d="M 137.144531 569.394531 L 145.007812 569.394531 L 145.007812 483.640625 L 137.144531 483.640625 L 137.144531 569.394531"/><path fill="#BDBCBC" d="M 98.191406 522.582031 L 98.191406 530.453125 L 183.96875 530.453125 L 183.96875 522.582031 L 98.191406 522.582031"/><path fill="#BDBCBC" d="M 107.960938 554.066406 L 113.515625 559.625 L 174.183594 498.96875 L 168.617188 493.410156 L 107.960938 554.066406"/><path fill="#BDBCBC" d="M 113.515625 493.410156 L 107.960938 498.96875 L 168.617188 559.625 L 174.183594 554.066406 L 113.515625 493.410156"/><path fill="#BDBCBC" d="M 123.859375 526.503906 C 123.859375 536.035156 131.585938 543.730469 141.085938 543.730469 C 150.589844 543.730469 158.289062 536.035156 158.289062 526.503906 C 158.289062 517 150.589844 509.304688 141.085938 509.304688 C 131.585938 509.304688 123.859375 517 123.859375 526.503906"/><path fill="#2E2A2B" d="M 139.472656 520.304688 C 140.457031 521.300781 142.074219 521.300781 143.082031 520.304688 C 144.082031 519.304688 144.082031 517.691406 143.082031 516.695312 C 142.074219 515.71875 140.457031 515.71875 139.472656 516.695312 C 138.476562 517.691406 138.476562 519.304688 139.472656 520.304688"/><path fill="#2E2A2B" d="M 131.265625 528.503906 C 132.273438 529.496094 133.867188 529.496094 134.867188 528.503906 C 135.847656 527.53125 135.847656 525.910156 134.867188 524.914062 C 133.867188 523.914062 132.273438 523.914062 131.265625 524.914062 C 130.265625 525.910156 130.265625 527.53125 131.265625 528.503906"/><path fill="#2E2A2B" d="M 147.285156 528.125 C 148.285156 529.125 149.902344 529.125 150.894531 528.125 C 151.867188 527.125 151.867188 525.503906 150.894531 524.515625 C 149.902344 523.539062 148.285156 523.539062 147.285156 524.515625 C 146.277344 525.503906 146.277344 527.125 147.285156 528.125"/><path fill="#2E2A2B" d="M 139.085938 536.316406 C 140.085938 537.316406 141.667969 537.316406 142.675781 536.316406 C 143.675781 535.324219 143.675781 533.707031 142.675781 532.734375 C 141.667969 531.734375 140.085938 531.734375 139.085938 532.734375 C 138.09375 533.707031 138.09375 535.324219 139.085938 536.316406"/><path fill="#1C4259" d="M 378.285156 384.390625 C 378.285156 389 381.574219 392.703125 385.582031 392.703125 L 407.53125 392.703125 C 411.546875 392.703125 414.832031 389 414.832031 384.390625 C 414.832031 379.796875 411.546875 376.070312 407.53125 376.070312 L 385.582031 376.070312 C 381.574219 376.070312 378.285156 379.796875 378.285156 384.390625"/><path fill="#1C4259" d="M 200.9375 384.390625 C 200.9375 389 204.191406 392.703125 208.222656 392.703125 L 230.148438 392.703125 C 234.171875 392.703125 237.449219 389 237.449219 384.390625 C 237.449219 379.796875 234.171875 376.070312 230.148438 376.070312 L 208.222656 376.070312 C 204.191406 376.070312 200.9375 379.796875 200.9375 384.390625"/></svg>