<svg xmlns="http://www.w3.org/2000/svg" width="810" viewBox="0 0 810 810" height="810" version="1.0"><defs><clipPath id="a"><path d="M 13.949219 156.566406 L 796.292969 156.566406 L 796.292969 653.066406 L 13.949219 653.066406 Z M 13.949219 156.566406"/></clipPath></defs><path fill="#FFFB73" d="M 14.652344 404.820312 C 14.652344 541.539062 189.472656 652.371094 405.121094 652.371094 C 620.769531 652.371094 795.589844 541.539062 795.589844 404.820312 C 795.589844 268.101562 620.769531 157.269531 405.121094 157.269531 C 189.472656 157.269531 14.652344 268.101562 14.652344 404.820312"/><g clip-path="url(#a)"><path d="M 405.121094 157.96875 C 620.035156 157.96875 794.882812 268.707031 794.882812 404.820312 C 794.882812 540.929688 620.035156 651.667969 405.121094 651.667969 C 190.203125 651.667969 15.355469 540.929688 15.355469 404.820312 C 15.355469 268.707031 190.203125 157.96875 405.121094 157.96875 Z M 405.121094 653.074219 C 509.550781 653.074219 607.738281 627.285156 681.597656 580.457031 C 755.558594 533.566406 796.292969 471.191406 796.292969 404.820312 C 796.292969 338.445312 755.558594 276.070312 681.597656 229.179688 C 607.738281 182.351562 509.550781 156.566406 405.121094 156.566406 C 300.691406 156.566406 202.5 182.351562 128.640625 229.179688 C 54.675781 276.070312 13.949219 338.445312 13.949219 404.820312 C 13.949219 471.191406 54.675781 533.566406 128.640625 580.457031 C 202.5 627.285156 300.691406 653.074219 405.121094 653.074219"/></g><path d="M 261.851562 511.128906 L 122.074219 499.65625 C 122.074219 499.65625 95.0625 417.980469 204.453125 417.980469 C 313.847656 417.980469 261.851562 511.128906 261.851562 511.128906"/><path d="M 204.457031 418.683594 C 236.917969 418.683594 258.214844 426.925781 267.761719 443.175781 C 282.738281 468.664062 263.714844 506.128906 261.453125 510.390625 L 122.613281 498.992188 C 121.480469 495.171875 114.070312 467.425781 129.710938 445.800781 C 142.722656 427.808594 167.871094 418.683594 204.457031 418.683594 Z M 262.246094 511.867188 L 262.46875 511.472656 C 262.695312 511.058594 285.203125 470.085938 268.976562 442.464844 C 259.160156 425.753906 237.457031 417.28125 204.457031 417.28125 C 167.390625 417.28125 141.851562 426.601562 128.5625 444.984375 C 111.394531 468.730469 121.308594 499.566406 121.410156 499.878906 L 121.550781 500.320312 L 122.019531 500.355469 L 262.246094 511.867188"/><path d="M 697.394531 507.753906 L 569.09375 511.804688 C 569.09375 511.804688 550.863281 397.730469 631.894531 405.832031 C 712.925781 413.929688 697.394531 507.753906 697.394531 507.753906"/><path d="M 696.785156 507.070312 L 569.699219 511.082031 C 568.777344 504.550781 561.640625 447.785156 587.207031 420.679688 C 597.855469 409.398438 612.871094 404.636719 631.824219 406.53125 C 653.378906 408.6875 669.984375 417.1875 681.1875 431.804688 C 702.609375 459.757812 697.542969 501.699219 696.785156 507.070312 Z M 568.496094 512.527344 L 697.992188 508.4375 L 698.085938 507.871094 C 698.164062 507.40625 705.484375 461.210938 682.308594 430.957031 C 670.863281 416.015625 653.921875 407.328125 631.964844 405.132812 C 612.546875 403.195312 597.144531 408.101562 586.183594 419.71875 C 558.695312 448.863281 568.300781 511.285156 568.402344 511.917969 L 568.496094 512.527344"/><path fill="#4E4F51" d="M 260.503906 289.734375 L 232.144531 244.511719 L 229.441406 246.535156 L 257.125 291.085938 C 257.125 291.085938 253.078125 292.4375 253.078125 296.484375 C 253.078125 300.535156 267.929688 295.8125 267.929688 295.8125 C 267.929688 295.8125 267.929688 289.058594 260.503906 289.734375"/><path d="M 267.1875 295.304688 C 262.757812 296.65625 255.707031 298.207031 254.03125 296.984375 C 253.851562 296.851562 253.777344 296.707031 253.777344 296.484375 C 253.777344 292.980469 257.308594 291.761719 257.347656 291.75 L 258.191406 291.46875 L 230.378906 246.710938 L 231.953125 245.53125 L 260.136719 290.472656 L 260.5625 290.433594 C 262.679688 290.242188 264.320312 290.667969 265.460938 291.707031 C 266.71875 292.847656 267.082031 294.484375 267.1875 295.304688 Z M 256.332031 298.808594 C 260.65625 298.808594 267.203125 296.777344 268.144531 296.480469 L 268.632812 296.324219 L 268.632812 295.808594 C 268.632812 295.683594 268.605469 292.671875 266.417969 290.675781 C 265.058594 289.433594 263.199219 288.867188 260.871094 289 L 232.332031 243.488281 L 228.503906 246.359375 L 256.097656 290.757812 C 254.492188 291.574219 252.371094 293.433594 252.371094 296.484375 C 252.371094 297.15625 252.660156 297.722656 253.203125 298.121094 C 253.882812 298.613281 255 298.808594 256.332031 298.808594"/><path fill="#E81F20" d="M 142.332031 367.355469 C 142.332031 367.355469 110.59375 377.144531 124.097656 431.480469 C 137.605469 485.816406 175.421875 370.394531 142.332031 367.355469"/><path d="M 142.414062 368.070312 C 152.855469 369.148438 154.679688 382.328125 154.835938 390.109375 C 155.296875 413.082031 143.804688 444.007812 134.339844 445.261719 C 130.472656 445.777344 127.175781 440.949219 124.78125 431.3125 C 112.023438 379.964844 140.273438 368.832031 142.414062 368.070312 Z M 133.746094 446.710938 C 134.003906 446.710938 134.265625 446.691406 134.527344 446.65625 C 145.53125 445.199219 156.6875 412.203125 156.242188 390.082031 C 155.949219 375.769531 151.035156 367.449219 142.394531 366.65625 L 142.257812 366.644531 L 142.121094 366.683594 C 141.796875 366.785156 109.90625 377.296875 123.417969 431.648438 C 125.902344 441.648438 129.375 446.710938 133.746094 446.710938"/><path fill="#383839" d="M 711.574219 486.832031 C 711.574219 486.832031 704.820312 504.378906 697.394531 507.753906 L 691.316406 507.753906 C 691.316406 507.753906 716.976562 454.429688 662.957031 429.457031 C 662.957031 429.457031 627.167969 411.90625 594.753906 439.582031 C 594.753906 439.582031 567.746094 464.554688 569.09375 511.804688 L 261.851562 511.128906 C 261.851562 511.128906 265.230469 430.808594 198.378906 430.128906 C 131.527344 429.457031 122.078125 499.65625 122.078125 499.65625 C 122.078125 499.65625 104.519531 490.878906 105.871094 469.957031 C 107.21875 449.03125 155.164062 401.105469 155.164062 401.105469 L 274.007812 393.007812 L 668.359375 397.730469 L 706.847656 434.855469 L 710.222656 453.082031 L 711.574219 486.832031"/><path fill="#B41B28" d="M 563.894531 378.914062 L 673.105469 390.015625 C 673.105469 390.015625 702.121094 404.480469 708.199219 425.40625 C 708.199219 425.40625 712.25 432.15625 708.875 438.90625 L 699.421875 444.980469 C 699.421875 444.980469 683.890625 408.53125 643.375 409.207031 C 643.375 409.207031 624.464844 407.183594 601.507812 417.304688 L 563.894531 378.914062"/><path d="M 708.328125 438.417969 L 699.71875 443.953125 C 697.199219 438.757812 680.949219 408.492188 644.46875 408.492188 C 644.101562 408.492188 643.734375 408.5 643.363281 408.503906 C 643.257812 408.492188 624.339844 406.605469 601.671875 416.464844 L 565.757812 379.8125 L 672.902344 390.703125 C 674.878906 391.714844 701.792969 405.871094 707.523438 425.601562 L 707.59375 425.765625 C 707.632812 425.828125 711.332031 432.164062 708.328125 438.417969 Z M 699.101562 446.023438 L 709.414062 439.394531 L 709.503906 439.222656 C 712.847656 432.53125 709.332031 425.96875 708.847656 425.125 C 702.707031 404.191406 674.613281 389.984375 673.417969 389.386719 L 673.175781 389.316406 L 562.03125 378.019531 L 601.347656 418.144531 L 601.792969 417.949219 C 624.316406 408.015625 643.113281 409.882812 643.296875 409.90625 C 643.660156 409.902344 644.019531 409.898438 644.375 409.898438 C 683.226562 409.898438 698.621094 444.898438 698.773438 445.253906 L 699.101562 446.023438"/><path fill="#B41B28" d="M 708.875 438.90625 C 708.875 438.90625 731.832031 444.980469 711.574219 486.832031 C 711.574219 486.832031 710.898438 459.15625 699.421875 444.980469 L 708.875 438.90625"/><path d="M 708.976562 439.675781 C 710.148438 440.089844 714.691406 442.015625 717.300781 447.722656 C 719.9375 453.5 721.085938 464.429688 712.136719 483.988281 C 711.644531 476.648438 709.5 456.917969 700.453125 445.152344 Z M 710.945312 489.75 L 712.207031 487.136719 C 720.632812 469.730469 722.773438 456.257812 718.5625 447.09375 C 715.273438 439.945312 709.304688 438.292969 709.054688 438.226562 L 708.753906 438.148438 L 698.378906 444.8125 L 698.875 445.421875 C 710.066406 459.246094 710.863281 486.574219 710.871094 486.847656 L 710.945312 489.75"/><path fill="#B41B28" d="M 601.507812 417.304688 C 601.507812 417.304688 566.394531 432.15625 552.214844 491.554688 L 276.707031 489.53125 C 276.707031 489.53125 269.277344 415.957031 196.351562 410.558594 C 196.351562 410.558594 138.28125 401.105469 105.867188 469.957031 L 107.894531 440.929688 L 124.097656 431.480469 L 124.097656 426.082031 C 124.097656 426.082031 139.632812 419.332031 149.085938 381.53125 C 149.085938 381.53125 151.789062 372.082031 142.335938 367.355469 L 151.109375 363.308594 L 334.777344 370.734375 L 563.894531 378.914062 L 601.507812 417.304688"/><path d="M 600.320312 417.097656 C 594.6875 419.96875 564.558594 437.558594 551.660156 490.847656 L 277.332031 488.832031 C 276.882812 485.425781 274.28125 468.734375 264.488281 451.71875 C 254.394531 434.171875 234.386719 412.667969 196.40625 409.855469 C 195.890625 409.773438 139.378906 401.402344 106.824219 466.378906 L 108.570312 441.351562 L 124.804688 431.886719 L 124.804688 426.519531 C 127.429688 425.128906 141.085938 416.402344 149.769531 381.703125 C 149.785156 381.628906 152.273438 372.523438 143.890625 367.414062 L 151.253906 364.015625 L 334.75 371.433594 L 563.589844 379.609375 Z M 552.769531 492.261719 L 552.898438 491.71875 C 566.835938 433.339844 601.433594 418.101562 601.78125 417.957031 L 602.734375 417.550781 L 564.199219 378.222656 L 563.921875 378.214844 L 334.808594 370.03125 L 150.96875 362.597656 L 140.710938 367.332031 L 142.019531 367.988281 C 150.816406 372.386719 148.511719 380.976562 148.410156 381.339844 C 139.171875 418.28125 123.972656 425.371094 123.820312 425.4375 L 123.394531 425.621094 L 123.394531 431.078125 L 107.21875 440.507812 L 104.90625 473.652344 L 106.503906 470.257812 C 138.304688 402.710938 195.667969 411.164062 196.242188 411.25 C 233.664062 414.023438 253.34375 435.167969 263.265625 452.417969 C 274.042969 471.140625 275.988281 489.417969 276.007812 489.597656 L 276.074219 490.230469 L 276.699219 490.234375 L 552.769531 492.261719"/><path fill="#201D1D" d="M 579.296875 487.207031 C 579.296875 518.519531 604.695312 543.90625 636.019531 543.90625 C 667.347656 543.90625 692.742188 518.519531 692.742188 487.207031 C 692.742188 455.890625 667.347656 430.503906 636.019531 430.503906 C 604.695312 430.503906 579.296875 455.890625 579.296875 487.207031"/><path d="M 636.019531 431.210938 C 666.910156 431.210938 692.039062 456.328125 692.039062 487.207031 C 692.039062 518.078125 666.910156 543.199219 636.019531 543.199219 C 605.132812 543.199219 580.003906 518.078125 580.003906 487.207031 C 580.003906 456.328125 605.132812 431.210938 636.019531 431.210938 Z M 636.019531 544.609375 C 667.683594 544.609375 693.445312 518.855469 693.445312 487.207031 C 693.445312 455.554688 667.683594 429.800781 636.019531 429.800781 C 604.355469 429.800781 578.59375 455.554688 578.59375 487.207031 C 578.59375 518.855469 604.355469 544.609375 636.019531 544.609375"/><path fill="#B2B3B5" d="M 600.234375 487.207031 C 600.234375 506.960938 616.253906 522.980469 636.019531 522.980469 C 655.785156 522.980469 671.808594 506.960938 671.808594 487.207031 C 671.808594 467.449219 655.785156 451.433594 636.019531 451.433594 C 616.253906 451.433594 600.234375 467.449219 600.234375 487.207031"/><path d="M 636.019531 452.132812 C 655.367188 452.132812 671.105469 467.867188 671.105469 487.207031 C 671.105469 506.542969 655.367188 522.277344 636.019531 522.277344 C 616.675781 522.277344 600.9375 506.542969 600.9375 487.207031 C 600.9375 467.867188 616.675781 452.132812 636.019531 452.132812 Z M 636.019531 523.683594 C 656.140625 523.683594 672.511719 507.320312 672.511719 487.207031 C 672.511719 467.089844 656.140625 450.726562 636.019531 450.726562 C 615.898438 450.726562 599.527344 467.089844 599.527344 487.207031 C 599.527344 507.320312 615.898438 523.683594 636.019531 523.683594"/><path fill="#201D1D" d="M 623.191406 487.207031 C 623.191406 494.289062 628.933594 500.03125 636.019531 500.03125 C 643.105469 500.03125 648.851562 494.289062 648.851562 487.207031 C 648.851562 480.121094 643.105469 474.378906 636.019531 474.378906 C 628.933594 474.378906 623.191406 480.121094 623.191406 487.207031"/><path d="M 636.019531 475.082031 C 642.707031 475.082031 648.148438 480.523438 648.148438 487.207031 C 648.148438 493.890625 642.707031 499.328125 636.019531 499.328125 C 629.335938 499.328125 623.894531 493.890625 623.894531 487.207031 C 623.894531 480.523438 629.335938 475.082031 636.019531 475.082031 Z M 636.019531 500.734375 C 643.484375 500.734375 649.554688 494.667969 649.554688 487.207031 C 649.554688 479.746094 643.484375 473.679688 636.019531 473.679688 C 628.558594 473.679688 622.488281 479.746094 622.488281 487.207031 C 622.488281 494.667969 628.558594 500.734375 636.019531 500.734375"/><path fill="#201D1D" d="M 135.65625 492.832031 C 135.65625 524.144531 161.050781 549.527344 192.375 549.527344 C 223.699219 549.527344 249.097656 524.144531 249.097656 492.832031 C 249.097656 461.515625 223.699219 436.128906 192.375 436.128906 C 161.050781 436.128906 135.65625 461.515625 135.65625 492.832031"/><path d="M 192.378906 436.832031 C 223.261719 436.832031 248.394531 461.953125 248.394531 492.832031 C 248.394531 523.703125 223.261719 548.824219 192.378906 548.824219 C 161.492188 548.824219 136.359375 523.703125 136.359375 492.832031 C 136.359375 461.953125 161.492188 436.832031 192.378906 436.832031 Z M 192.378906 550.230469 C 224.042969 550.230469 249.800781 524.480469 249.800781 492.832031 C 249.800781 461.175781 224.042969 435.429688 192.378906 435.429688 C 160.714844 435.429688 134.953125 461.175781 134.953125 492.832031 C 134.953125 524.480469 160.714844 550.230469 192.378906 550.230469"/><path fill="#B2B3B5" d="M 156.589844 492.832031 C 156.589844 512.585938 172.613281 528.605469 192.378906 528.605469 C 212.140625 528.605469 228.167969 512.585938 228.167969 492.832031 C 228.167969 473.070312 212.140625 457.054688 192.378906 457.054688 C 172.613281 457.054688 156.589844 473.070312 156.589844 492.832031"/><path d="M 192.375 457.757812 C 211.722656 457.757812 227.460938 473.492188 227.460938 492.832031 C 227.460938 512.167969 211.722656 527.902344 192.375 527.902344 C 173.027344 527.902344 157.289062 512.167969 157.289062 492.832031 C 157.289062 473.492188 173.027344 457.757812 192.375 457.757812 Z M 192.375 529.304688 C 212.5 529.304688 228.871094 512.941406 228.871094 492.832031 C 228.871094 472.714844 212.5 456.351562 192.375 456.351562 C 172.253906 456.351562 155.882812 472.714844 155.882812 492.832031 C 155.882812 512.941406 172.253906 529.304688 192.375 529.304688"/><path fill="#201D1D" d="M 179.546875 492.828125 C 179.546875 499.910156 185.289062 505.652344 192.375 505.652344 C 199.464844 505.652344 205.203125 499.910156 205.203125 492.828125 C 205.203125 485.746094 199.464844 480.007812 192.375 480.007812 C 185.289062 480.007812 179.546875 485.746094 179.546875 492.828125"/><path d="M 192.375 480.707031 C 199.058594 480.707031 204.503906 486.148438 204.503906 492.828125 C 204.503906 499.511719 199.058594 504.953125 192.375 504.953125 C 185.6875 504.953125 180.25 499.511719 180.25 492.828125 C 180.25 486.148438 185.6875 480.707031 192.375 480.707031 Z M 192.375 506.355469 C 199.835938 506.355469 205.910156 500.289062 205.910156 492.828125 C 205.910156 485.371094 199.835938 479.304688 192.375 479.304688 C 184.914062 479.304688 178.84375 485.371094 178.84375 492.828125 C 178.84375 500.289062 184.914062 506.355469 192.375 506.355469"/><path fill="#C1E8F5" d="M 523.515625 381.53125 L 473.378906 311.671875 L 212.050781 308.632812 L 175.589844 363.308594 L 523.515625 381.53125"/><path d="M 473.015625 312.371094 L 522.089844 380.753906 L 176.859375 362.667969 L 212.425781 309.339844 Z M 524.9375 382.308594 L 473.742188 310.96875 L 211.679688 307.925781 L 174.316406 363.945312 L 175.550781 364.007812 L 524.9375 382.308594"/><path d="M 336.460938 490.039062 L 337.828125 489.699219 C 317.75 408.730469 324.796875 383.21875 330.789062 375.222656 C 333.507812 371.589844 336.128906 371.4375 336.15625 371.433594 L 336.828125 371.40625 L 336.835938 370.730469 L 336.835938 310.660156 L 335.425781 310.660156 L 335.425781 370.128906 C 334.320312 370.382812 332.046875 371.25 329.757812 374.25 C 323.554688 382.375 316.175781 408.21875 336.460938 490.039062"/><path fill="#FFF" d="M 473.378906 311.671875 L 488.066406 310.660156 C 488.066406 310.660156 479.960938 298.507812 450.589844 300.535156 C 421.214844 302.558594 224.714844 294.460938 224.714844 294.460938 C 224.714844 294.460938 179.136719 298.507812 179.136719 304.585938 C 179.136719 310.660156 473.378906 311.671875 473.378906 311.671875"/><path d="M 486.613281 310.050781 L 473.351562 310.964844 C 359.011719 310.574219 187.542969 308.492188 179.863281 304.363281 C 180.8125 301.011719 203.15625 297.078125 224.773438 295.15625 C 226.648438 295.242188 421.558594 303.238281 450.636719 301.234375 C 474.152344 299.609375 483.875 307.25 486.613281 310.050781 Z M 473.398438 312.371094 L 473.425781 312.371094 L 489.320312 311.277344 L 488.648438 310.269531 C 488.308594 309.757812 479.984375 297.808594 450.539062 299.832031 C 421.535156 301.835938 226.703125 293.835938 224.742188 293.753906 C 216.933594 294.445312 178.429688 298.1875 178.429688 304.582031 C 178.429688 306.152344 178.429688 309.074219 326.246094 311.105469 C 398.96875 312.109375 472.640625 312.371094 473.375 312.371094 L 473.398438 312.371094"/><path fill="#383839" d="M 483 311.671875 L 541.75 381.53125 L 523.515625 381.53125 L 473.375 311.671875 L 483 311.671875"/><path fill="#FFF" d="M 541.75 381.53125 L 563.894531 378.914062 L 488.066406 310.65625 L 483 311.671875 L 541.75 381.53125"/><path d="M 562.269531 378.398438 L 542.042969 380.789062 L 484.304688 312.125 L 487.855469 311.417969 Z M 541.453125 382.273438 L 565.519531 379.429688 L 488.273438 309.898438 L 481.699219 311.214844 L 541.453125 382.273438"/><path d="M 544.46875 490.980469 C 558.554688 396.4375 535.992188 381.519531 535.019531 380.929688 L 534.292969 382.132812 L 534.65625 381.53125 L 534.289062 382.128906 C 534.515625 382.273438 556.980469 397.476562 543.078125 490.777344 L 544.46875 490.980469"/><path fill="#4E4F51" d="M 175.585938 363.308594 L 212.054688 308.632812 L 191.289062 307.621094 L 151.109375 363.308594 L 175.585938 363.308594"/><path d="M 175.210938 362.601562 L 152.484375 362.601562 L 191.636719 308.339844 L 210.777344 309.273438 Z M 149.734375 364.007812 L 175.964844 364.007812 L 213.324219 307.992188 L 190.9375 306.898438 L 190.714844 307.207031 L 149.734375 364.007812"/></svg>